SplineFontDB: 3.0
FontName: DOF-Afield-Regular
FullName: DOF-Afield-Regular
FamilyName: DOF-Afield
Weight: Regular
Copyright: Generated from MetaFont bitmap by mftrace 1.2.19, http://www.xs4all.nl/~hanwen/mftrace/ 
Version: 001.001
ItalicAngle: 0
UnderlinePosition: -102.4
UnderlineWidth: 51.2
Ascent: 819
Descent: 205
InvalidEm: 0
LayerCount: 2
Layer: 0 0 "Back" 1
Layer: 1 0 "Fore" 0
OS2Version: 0
OS2_WeightWidthSlopeOnly: 0
OS2_UseTypoMetrics: 0
CreationTime: 1521737747
ModificationTime: 1521738121
OS2TypoAscent: 0
OS2TypoAOffset: 1
OS2TypoDescent: 0
OS2TypoDOffset: 1
OS2TypoLinegap: 0
OS2WinAscent: 0
OS2WinAOffset: 1
OS2WinDescent: 0
OS2WinDOffset: 1
HheadAscent: 0
HheadAOffset: 1
HheadDescent: 0
HheadDOffset: 1
OS2Vendor: 'PfEd'
MarkAttachClasses: 1
DEI: 91125
LangName: 1033
Encoding: iso8859-15
UnicodeInterp: none
NameList: AGL For New Fonts
DisplaySize: -48
AntiAlias: 1
FitToEm: 0
WinInfo: 25 25 10
BeginPrivate: 3
lenIV 1 4
BlueValues 2 []
ForceBold 5 false
EndPrivate
BeginChars: 262 114

StartChar: exclam
Encoding: 33 33 1
Width: 412
Flags: HW
LayerCount: 2
Fore
SplineSet
213 818 m 0
 217 818 225 819 233 819 c 0
 247 818 256 816 260 812 c 2
 263 809 l 1
 263 460 l 2
 263 119 263 111 261 108 c 0
 258 104 254 100 244 95 c 0
 226 87 203 83 179 83 c 0
 163 84 157 85 153 90 c 2
 150 93 l 1
 150 442 l 1
 150 792 l 1
 154 796 l 2
 163 806 185 814 213 818 c 0
213 41 m 0
 237 44 257 41 262 33 c 0
 270 21 230 2 188 0 c 0
 169 -1 155 2 151 8 c 0
 144 20 175 37 213 41 c 0
EndSplineSet
EndChar

StartChar: quotedbl
Encoding: 34 34 2
Width: 404
Flags: HW
LayerCount: 2
Fore
SplineSet
129 818 m 0
 133 818 142 819 150 819 c 0
 164 818 172 816 176 812 c 2
 179 809 l 1
 179 726 l 2
 179 632 180 640 170 634 c 0
 154 623 127 616 100 616 c 0
 81 615 74 618 69 623 c 2
 66 626 l 1
 66 709 l 1
 66 792 l 1
 70 796 l 2
 79 806 101 814 129 818 c 0
289 818 m 0
 293 818 301 819 309 819 c 0
 323 818 332 816 336 812 c 2
 339 809 l 1
 339 726 l 2
 339 632 340 640 330 634 c 0
 314 623 287 616 260 616 c 0
 241 615 233 618 228 623 c 2
 225 626 l 1
 225 709 l 1
 225 792 l 1
 229 796 l 2
 238 806 261 814 289 818 c 0
EndSplineSet
EndChar

StartChar: numbersign
Encoding: 35 35 3
Width: 817
Flags: HW
LayerCount: 2
Fore
SplineSet
372 613 m 0
 395 615 414 612 418 605 c 0
 419 603 417 598 386 518 c 0
 367 472 352 433 351 432 c 0
 351 430 357 430 458 430 c 2
 564 430 l 1
 570 444 l 2
 573 452 587 488 601 524 c 0
 631 597 628 593 644 601 c 0
 659 608 679 613 702 614 c 0
 721 614 734 611 738 605 c 0
 739 602 739 598 706 517 c 0
 688 470 672 431 672 431 c 2
 672 430 691 430 714 430 c 0
 751 429 757 429 762 428 c 0
 768 426 773 421 773 418 c 0
 773 412 755 400 737 395 c 0
 719 390 712 389 682 388 c 2
 654 388 l 1
 651 380 l 2
 649 376 636 340 621 302 c 0
 606 263 592 230 592 228 c 2
 591 226 l 1
 633 226 l 2
 670 225 676 225 681 224 c 0
 687 222 692 217 692 214 c 0
 692 208 674 196 656 191 c 0
 638 186 631 185 601 184 c 2
 573 184 l 1
 569 173 l 2
 552 129 511 26 510 24 c 0
 508 21 498 15 490 11 c 0
 456 -2 406 -4 399 9 c 0
 398 11 400 16 431 96 c 0
 450 142 465 181 466 182 c 0
 466 184 460 184 359 184 c 2
 253 184 l 1
 247 170 l 2
 244 162 230 126 216 91 c 0
 186 17 189 21 174 13 c 0
 158 6 138 1 116 0 c 0
 96 0 83 3 79 9 c 0
 78 12 79 16 112 97 c 0
 130 144 145 183 145 183 c 2
 145 184 126 184 103 184 c 0
 66 185 60 185 55 186 c 0
 49 188 44 194 44 197 c 0
 44 203 62 214 80 219 c 0
 98 224 105 225 135 226 c 2
 163 226 l 1
 166 234 l 2
 168 238 182 274 197 313 c 0
 212 351 225 384 225 386 c 2
 226 388 l 1
 184 388 l 2
 147 389 141 389 136 390 c 0
 130 392 125 397 125 400 c 0
 125 406 143 418 161 423 c 0
 179 428 186 429 216 430 c 2
 244 430 l 1
 248 441 l 2
 265 485 306 589 307 591 c 0
 313 599 346 611 372 613 c 0
547 386 m 0
 547 388 541 388 440 388 c 2
 334 388 l 1
 330 379 l 2
 318 346 271 229 270 228 c 0
 270 226 276 226 377 226 c 2
 483 226 l 1
 487 236 l 2
 499 269 546 385 547 386 c 0
EndSplineSet
EndChar

StartChar: dollar
Encoding: 36 36 4
Width: 744
Flags: HW
LayerCount: 2
Fore
SplineSet
379 818 m 0
 383 818 391 819 399 819 c 0
 413 818 422 816 426 812 c 2
 429 809 l 1
 429 769 l 1
 429 728 l 1
 437 728 l 2
 442 727 455 727 465 726 c 0
 514 723 555 714 590 700 c 0
 626 686 648 666 654 640 c 0
 657 629 657 626 652 621 c 0
 642 610 613 599 583 597 c 0
 565 596 548 600 545 605 c 0
 544 606 543 610 543 614 c 0
 540 645 504 669 445 680 c 0
 438 681 431 682 430 682 c 0
 429 682 429 665 429 555 c 2
 429 427 l 1
 431 427 l 2
 432 426 442 425 452 423 c 0
 548 409 603 386 632 348 c 0
 639 339 648 319 651 307 c 0
 662 266 656 225 632 190 c 0
 623 176 605 158 589 148 c 0
 552 123 499 105 442 97 c 2
 430 95 l 1
 429 61 l 2
 428 22 429 24 420 18 c 0
 404 7 377 1 350 1 c 0
 331 0 323 2 318 7 c 2
 315 10 l 1
 315 50 l 1
 315 91 l 1
 308 91 l 2
 304 92 295 92 288 92 c 0
 256 94 219 99 191 106 c 0
 133 121 99 145 91 179 c 0
 88 190 88 194 93 199 c 0
 103 210 133 220 163 222 c 0
 181 223 198 219 201 214 c 0
 202 213 203 209 203 205 c 0
 206 174 241 150 300 139 c 2
 314 137 l 2
 315 137 315 186 315 264 c 2
 315 392 l 1
 299 394 l 2
 207 407 154 426 121 457 c 0
 110 467 103 475 96 490 c 0
 86 509 82 531 83 556 c 0
 85 601 110 642 151 670 c 0
 189 696 244 714 302 722 c 0
 307 723 312 723 313 724 c 2
 315 724 l 1
 315 758 l 1
 315 792 l 1
 319 796 l 2
 328 806 351 814 379 818 c 0
315 565 m 1
 315 685 l 1
 311 685 l 2
 297 684 274 679 260 673 c 0
 240 663 225 649 213 629 c 0
 194 597 192 549 207 515 c 0
 222 482 252 460 306 447 c 1
 315 444 l 1
 315 565 l 1
451 367 m 0
 444 370 435 372 433 373 c 2
 429 373 l 1
 429 254 l 1
 429 134 l 1
 431 134 l 2
 432 134 438 135 444 136 c 0
 471 139 492 150 509 167 c 0
 535 193 547 230 542 270 c 0
 536 318 507 350 451 367 c 0
EndSplineSet
EndChar

StartChar: percent
Encoding: 37 37 5
Width: 898
Flags: HW
LayerCount: 2
Fore
SplineSet
223 823 m 0
 225 824 233 824 240 824 c 0
 258 824 270 821 274 815 c 0
 281 804 247 786 207 782 c 0
 201 782 199 781 195 778 c 0
 180 766 167 743 162 715 c 0
 156 683 157 636 164 601 c 0
 173 554 195 520 227 508 c 2
 233 506 l 1
 237 508 l 2
 244 513 252 526 259 540 c 0
 271 564 278 594 280 635 c 2
 280 652 l 1
 284 657 l 2
 295 669 328 679 359 679 c 0
 376 679 385 678 390 673 c 2
 393 670 l 1
 393 651 l 2
 391 609 385 581 372 552 c 0
 364 536 356 525 345 514 c 0
 314 483 263 464 204 462 c 0
 156 461 118 472 91 499 c 0
 66 523 51 559 46 606 c 0
 44 622 44 659 45 674 c 0
 51 740 78 779 133 803 c 0
 160 814 185 820 223 823 c 0
807 818 m 0
 835 821 856 815 854 806 c 0
 853 802 154 22 148 18 c 0
 126 3 73 -5 51 4 c 0
 46 6 44 10 44 13 c 0
 45 17 744 797 750 801 c 0
 761 809 787 817 807 818 c 0
684 356 m 0
 694 357 720 356 725 355 c 0
 741 350 738 339 719 329 c 0
 706 323 681 316 671 316 c 0
 669 316 666 314 662 311 c 0
 646 297 631 269 625 236 c 0
 621 218 619 207 618 182 c 0
 617 139 623 110 636 85 c 0
 647 63 664 48 684 41 c 0
 699 36 699 36 707 44 c 0
 727 64 738 95 740 139 c 0
 740 156 742 158 751 164 c 0
 779 182 842 187 852 173 c 0
 854 170 854 160 853 144 c 0
 851 119 846 100 837 82 c 0
 815 37 770 9 699 -3 c 0
 683 -5 634 -5 618 -2 c 0
 585 4 563 15 545 33 c 0
 535 43 529 49 523 63 c 0
 508 93 502 132 506 184 c 0
 511 249 533 295 572 322 c 0
 600 340 641 353 684 356 c 0
EndSplineSet
EndChar

StartChar: ampersand
Encoding: 38 38 6
Width: 744
Flags: HW
LayerCount: 2
Fore
SplineSet
365 823 m 0
 412 827 464 821 499 809 c 0
 556 787 593 747 607 688 c 0
 617 648 617 604 607 573 c 0
 604 562 594 542 587 532 c 0
 573 513 551 492 525 476 c 0
 493 454 463 440 389 409 c 0
 370 401 352 394 351 393 c 0
 350 393 352 389 361 376 c 0
 421 291 498 200 563 140 c 0
 581 124 582 123 585 124 c 0
 590 127 605 131 616 133 c 0
 643 138 671 135 675 127 c 0
 677 124 676 117 674 109 c 0
 671 97 663 83 654 74 c 2
 650 69 l 1
 658 63 l 2
 675 52 696 44 710 40 c 0
 717 38 722 34 722 31 c 0
 722 20 701 8 669 2 c 0
 662 1 653 1 643 1 c 0
 629 1 624 1 617 3 c 0
 606 6 593 11 580 18 c 2
 568 24 l 1
 549 18 l 2
 495 2 433 -5 357 -5 c 0
 316 -5 291 -3 261 3 c 0
 233 8 206 19 186 30 c 0
 136 58 106 101 94 161 c 0
 87 199 88 234 97 262 c 0
 100 273 111 293 118 304 c 0
 127 316 149 338 164 349 c 0
 178 359 198 372 214 381 c 2
 226 387 l 1
 218 400 l 2
 184 450 153 511 140 550 c 0
 131 577 128 593 129 617 c 0
 132 690 160 743 213 777 c 0
 250 802 306 818 365 823 c 0
383 778 m 0
 369 781 341 783 331 781 c 0
 307 777 278 752 263 722 c 0
 255 706 249 684 246 662 c 0
 243 646 242 620 244 610 c 0
 246 592 254 567 265 541 c 0
 276 515 300 470 319 439 c 2
 326 430 l 1
 349 440 l 2
 392 458 421 474 441 489 c 0
 477 516 496 548 501 589 c 0
 502 600 502 626 500 641 c 0
 495 683 480 716 456 741 c 0
 437 759 412 773 383 778 c 0
270 325 m 0
 263 334 257 341 256 341 c 0
 254 341 235 321 228 312 c 0
 203 279 197 235 208 180 c 0
 223 96 282 46 374 38 c 0
 389 37 442 37 462 39 c 0
 486 41 508 46 520 51 c 2
 524 53 l 1
 513 62 l 2
 440 118 344 224 270 325 c 0
EndSplineSet
EndChar

StartChar: parenleft
Encoding: 40 40 7
Width: 290
Flags: HW
LayerCount: 2
Fore
SplineSet
198 859 m 0
 206 860 231 859 236 858 c 0
 242 856 247 851 247 848 c 0
 247 843 231 831 217 826 c 0
 214 826 211 824 210 823 c 0
 207 821 200 806 197 797 c 0
 188 772 175 713 169 664 c 0
 161 598 159 558 158 449 c 0
 157 268 162 181 185 82 c 0
 192 47 201 25 210 12 c 0
 217 4 220 1 228 0 c 0
 239 -2 247 -6 247 -11 c 0
 247 -15 238 -23 229 -28 c 0
 206 -38 175 -43 150 -40 c 0
 106 -35 88 -10 72 65 c 0
 49 164 43 250 44 431 c 0
 45 521 46 556 51 605 c 0
 56 672 71 747 83 782 c 0
 97 821 116 840 156 851 c 0
 166 854 186 858 198 859 c 0
EndSplineSet
EndChar

StartChar: parenright
Encoding: 41 41 8
Width: 290
Flags: HW
LayerCount: 2
Fore
SplineSet
108 859 m 0
 118 860 134 860 144 859 c 0
 185 852 204 829 219 755 c 0
 242 656 248 569 247 388 c 0
 246 311 246 289 243 248 c 0
 239 181 228 110 215 59 c 0
 204 19 191 -3 169 -17 c 0
 155 -26 134 -34 111 -38 c 0
 93 -41 65 -41 56 -39 c 0
 49 -37 44 -32 44 -29 c 0
 44 -24 60 -12 74 -7 c 0
 77 -7 80 -5 81 -4 c 0
 84 -2 91 14 94 23 c 0
 103 48 116 107 122 156 c 0
 130 222 132 262 133 372 c 0
 134 552 128 638 105 737 c 0
 98 772 90 794 81 807 c 0
 74 815 70 818 62 819 c 0
 54 820 48 823 46 826 c 0
 43 829 44 833 48 837 c 0
 57 847 81 856 108 859 c 0
EndSplineSet
EndChar

StartChar: asterisk
Encoding: 42 42 9
Width: 655
Flags: HW
LayerCount: 2
Fore
SplineSet
335 818 m 0
 339 818 347 819 355 819 c 0
 369 818 378 816 382 812 c 2
 385 809 l 1
 385 774 l 1
 385 739 l 1
 393 743 l 2
 411 752 432 757 457 757 c 0
 467 757 475 757 478 756 c 0
 482 755 488 751 489 749 c 0
 491 746 489 741 485 737 c 0
 483 735 462 722 438 709 c 0
 404 690 394 683 395 682 c 0
 396 682 416 669 442 655 c 0
 467 641 487 629 488 628 c 0
 491 625 490 620 486 616 c 0
 479 608 462 601 442 597 c 0
 422 593 403 592 390 595 c 2
 385 597 l 1
 385 578 l 1
 385 558 l 1
 380 553 l 2
 360 536 300 526 278 537 c 0
 276 538 273 540 272 541 c 0
 271 542 271 555 271 578 c 2
 271 612 l 1
 263 608 l 2
 244 598 210 592 187 594 c 0
 173 596 165 600 165 606 c 0
 165 611 173 617 216 642 c 0
 239 655 258 667 259 667 c 0
 261 668 256 671 215 695 c 0
 189 709 168 723 167 724 c 0
 159 734 183 749 218 756 c 0
 231 758 259 758 266 756 c 2
 271 754 l 1
 271 773 l 1
 271 792 l 1
 275 796 l 2
 284 806 307 814 335 818 c 0
EndSplineSet
EndChar

StartChar: plus
Encoding: 43 43 10
Width: 817
Flags: HW
LayerCount: 2
Fore
SplineSet
416 613 m 0
 420 613 428 614 436 614 c 0
 450 613 459 611 463 607 c 2
 466 604 l 1
 466 467 l 1
 466 329 l 1
 611 329 l 2
 748 329 757 328 762 327 c 0
 768 325 773 319 773 316 c 0
 773 310 755 299 737 294 c 0
 714 287 722 288 588 287 c 2
 466 287 l 1
 466 158 l 2
 466 11 467 24 457 18 c 0
 441 7 414 1 387 1 c 0
 368 0 360 2 355 7 c 2
 352 10 l 1
 352 148 l 1
 352 287 l 1
 207 287 l 2
 69 287 60 288 55 289 c 0
 49 291 44 296 44 299 c 0
 44 305 62 317 80 322 c 0
 103 329 95 328 229 329 c 2
 352 329 l 1
 352 458 l 1
 352 587 l 1
 356 591 l 2
 365 601 388 609 416 613 c 0
EndSplineSet
EndChar

StartChar: comma
Encoding: 44 44 11
Width: 250
Flags: HW
LayerCount: 2
Fore
SplineSet
132 41 m 0
 136 41 145 42 153 42 c 0
 168 41 175 39 179 35 c 2
 182 32 l 1
 182 16 l 2
 181 -9 177 -32 172 -54 c 0
 164 -87 144 -134 136 -141 c 0
 128 -147 112 -155 92 -159 c 0
 75 -162 49 -163 40 -160 c 0
 33 -157 29 -154 29 -151 c 0
 29 -149 31 -142 34 -137 c 0
 54 -96 67 -49 69 -1 c 2
 69 14 l 1
 73 19 l 2
 82 28 104 37 132 41 c 0
EndSplineSet
EndChar

StartChar: hyphen
Encoding: 45 45 12
Width: 817
Flags: HW
LayerCount: 2
Fore
SplineSet
108 328 m 0
 112 328 259 329 435 329 c 0
 743 329 757 328 762 327 c 0
 768 325 773 319 773 316 c 0
 773 315 771 312 769 309 c 0
 761 301 743 294 719 289 c 0
 710 288 691 288 386 288 c 0
 76 288 61 288 56 289 c 0
 49 291 44 296 44 299 c 0
 44 302 52 310 60 314 c 0
 72 320 90 326 108 328 c 0
EndSplineSet
EndChar

StartChar: period
Encoding: 46 46 13
Width: 250
Flags: HW
LayerCount: 2
Fore
SplineSet
135 49 m 0
 169 53 196 46 194 34 c 0
 192 30 183 22 174 17 c 0
 135 -2 70 -6 59 10 c 0
 56 14 57 19 63 24 c 0
 74 35 105 46 135 49 c 0
EndSplineSet
EndChar

StartChar: slash
Encoding: 47 47 14
Width: 574
Flags: HW
LayerCount: 2
Fore
SplineSet
483 818 m 0
 491 819 514 818 519 816 c 0
 524 815 530 810 530 808 c 0
 530 806 158 29 155 24 c 0
 151 17 128 7 104 2 c 0
 91 0 64 0 56 2 c 0
 50 4 44 9 44 11 c 0
 44 13 417 791 420 796 c 0
 425 804 456 816 483 818 c 0
EndSplineSet
EndChar

StartChar: zero
Encoding: 48 48 15
Width: 744
Flags: HW
LayerCount: 2
Fore
SplineSet
370 823 m 0
 404 826 423 823 428 815 c 0
 429 812 429 812 428 808 c 0
 421 796 387 784 355 782 c 0
 341 782 334 780 321 772 c 0
 293 756 269 731 251 696 c 0
 221 645 205 579 199 493 c 0
 196 449 197 367 201 325 c 0
 209 233 231 160 269 110 c 0
 300 69 349 40 391 37 c 0
 400 37 402 37 409 40 c 0
 435 50 463 73 482 103 c 0
 516 154 538 224 545 313 c 0
 548 353 549 430 546 465 c 0
 541 524 529 569 510 608 c 0
 493 643 471 667 442 683 c 0
 424 693 407 698 387 699 c 0
 372 700 364 703 359 707 c 0
 354 710 355 714 360 720 c 0
 369 727 387 734 411 739 c 0
 423 741 456 741 473 739 c 0
 519 732 557 713 587 683 c 0
 623 645 647 584 656 512 c 0
 659 484 661 470 662 432 c 0
 664 312 649 229 617 158 c 0
 593 106 565 72 523 44 c 0
 470 9 391 -10 324 -4 c 0
 267 1 217 23 179 61 c 0
 160 80 147 98 133 127 c 0
 96 201 81 288 83 420 c 0
 84 474 87 507 93 545 c 0
 103 608 124 665 153 709 c 0
 197 774 275 815 370 823 c 0
EndSplineSet
EndChar

StartChar: one
Encoding: 49 49 16
Width: 516
Flags: HW
LayerCount: 2
Fore
SplineSet
378 818 m 0
 382 818 390 819 398 819 c 0
 412 818 421 816 425 812 c 2
 428 809 l 1
 428 426 l 1
 428 42 l 1
 477 42 l 2
 516 42 527 42 532 41 c 0
 540 39 546 36 548 33 c 0
 549 30 549 30 548 26 c 0
 543 18 525 9 498 3 c 0
 489 1 486 1 352 0 c 0
 234 0 215 0 209 1 c 0
 201 3 196 6 194 9 c 0
 193 12 193 12 195 16 c 0
 199 24 219 34 246 40 c 0
 252 41 262 41 285 42 c 2
 314 42 l 1
 314 370 l 1
 314 697 l 2
 313 697 272 659 222 612 c 0
 135 532 130 528 123 524 c 0
 104 515 85 512 60 512 c 0
 43 512 41 512 36 514 c 0
 26 518 25 522 30 529 c 0
 32 531 98 593 178 667 c 0
 310 790 323 801 331 805 c 0
 343 811 359 815 378 818 c 0
EndSplineSet
EndChar

StartChar: two
Encoding: 50 50 17
Width: 744
Flags: HW
LayerCount: 2
Fore
SplineSet
355 823 m 0
 373 824 416 824 430 823 c 0
 505 818 561 798 600 762 c 0
 636 727 656 673 656 615 c 0
 656 578 648 545 632 511 c 0
 617 479 599 457 568 426 c 0
 534 392 503 367 423 313 c 0
 366 273 340 254 315 234 c 0
 253 182 219 132 208 76 c 0
 206 69 205 59 205 56 c 0
 204 52 204 47 203 45 c 2
 203 42 l 1
 417 42 l 2
 559 42 634 42 638 41 c 0
 651 39 658 33 654 27 c 0
 650 18 631 8 604 3 c 2
 593 1 l 1
 350 1 l 2
 121 1 106 1 101 2 c 0
 98 3 94 5 92 7 c 0
 89 9 89 10 89 16 c 0
 89 48 99 84 113 116 c 0
 129 149 150 176 183 208 c 0
 215 239 248 264 326 317 c 0
 403 369 434 393 464 424 c 0
 480 440 495 458 505 474 c 0
 515 487 526 512 531 527 c 0
 550 587 545 658 515 705 c 0
 489 746 447 771 391 779 c 0
 378 781 373 781 343 781 c 0
 300 781 282 780 263 773 c 0
 228 762 206 734 203 700 c 0
 203 691 201 688 196 684 c 0
 183 674 156 666 128 665 c 0
 108 665 97 666 92 672 c 2
 89 675 l 1
 89 683 l 2
 91 708 104 733 126 753 c 0
 167 792 255 819 355 823 c 0
EndSplineSet
EndChar

StartChar: three
Encoding: 51 51 18
Width: 744
Flags: HW
LayerCount: 2
Fore
SplineSet
328 824 m 0
 338 825 417 824 432 823 c 0
 506 818 559 801 598 769 c 0
 637 738 660 689 662 633 c 0
 664 572 639 514 595 479 c 0
 578 465 552 450 527 440 c 2
 516 436 l 1
 526 432 l 2
 559 421 584 406 606 384 c 0
 629 359 644 333 653 297 c 0
 659 272 660 260 660 232 c 0
 660 207 660 199 656 179 c 0
 651 153 637 120 624 101 c 0
 587 49 520 15 431 1 c 0
 402 -3 357 -6 312 -6 c 0
 265 -6 217 0 173 10 c 0
 121 23 97 36 91 58 c 0
 88 67 89 72 93 77 c 0
 110 94 171 105 195 95 c 0
 201 92 203 90 203 85 c 0
 203 78 208 70 216 65 c 0
 236 52 297 38 346 36 c 0
 369 36 421 37 432 39 c 0
 457 44 480 57 499 76 c 0
 525 102 540 136 546 183 c 0
 548 196 548 237 546 251 c 0
 535 327 494 376 425 398 c 0
 403 405 386 409 353 410 c 0
 329 411 323 412 318 417 c 0
 316 419 315 421 315 422 c 0
 315 426 324 433 333 438 c 0
 351 446 368 451 402 452 c 0
 437 453 452 456 469 465 c 0
 502 480 526 509 538 546 c 0
 551 586 551 631 538 671 c 0
 528 702 508 728 482 746 c 0
 472 753 448 766 436 770 c 0
 424 774 404 778 391 780 c 0
 372 782 311 784 289 782 c 0
 263 781 225 774 213 769 c 0
 208 767 204 761 203 753 c 0
 202 748 201 745 199 742 c 0
 186 729 140 718 112 721 c 0
 101 722 92 726 90 729 c 0
 88 732 89 742 93 749 c 0
 102 771 131 787 184 802 c 0
 227 813 273 821 328 824 c 0
EndSplineSet
EndChar

StartChar: four
Encoding: 52 52 19
Width: 677
Flags: HW
LayerCount: 2
Fore
SplineSet
269 818 m 0
 293 820 311 817 314 810 c 0
 316 807 312 788 250 527 c 0
 213 373 183 248 183 248 c 2
 183 247 215 247 253 247 c 2
 323 247 l 1
 323 417 l 1
 323 587 l 1
 327 592 l 2
 332 597 346 604 358 607 c 0
 374 612 385 613 402 613 c 0
 420 613 428 612 433 607 c 2
 436 604 l 1
 436 426 l 1
 436 247 l 1
 526 247 l 2
 610 246 618 246 623 245 c 0
 629 243 634 237 634 234 c 0
 634 228 616 217 598 212 c 0
 576 206 577 206 504 205 c 2
 436 205 l 1
 436 117 l 2
 436 16 437 24 427 18 c 0
 411 7 384 1 357 1 c 0
 338 0 331 2 326 7 c 2
 323 10 l 1
 323 108 l 1
 323 205 l 1
 206 205 l 2
 109 205 88 205 83 206 c 0
 75 208 70 211 68 214 c 0
 67 217 71 236 134 503 c 0
 171 660 203 790 204 793 c 0
 207 800 218 806 236 811 c 0
 243 814 261 818 269 818 c 0
EndSplineSet
EndChar

StartChar: five
Encoding: 53 53 20
Width: 744
Flags: HW
LayerCount: 2
Fore
SplineSet
153 818 m 0
 163 819 630 819 638 818 c 0
 651 816 658 810 654 804 c 0
 650 795 633 786 607 780 c 2
 595 778 l 1
 398 777 l 1
 203 777 l 1
 203 687 l 2
 203 638 203 597 204 597 c 2
 204 597 210 599 217 600 c 0
 265 613 322 620 387 620 c 0
 414 620 430 618 449 615 c 0
 505 608 555 584 588 549 c 0
 626 510 649 453 657 383 c 0
 661 350 662 296 659 264 c 0
 651 175 620 109 569 65 c 0
 523 27 454 2 376 -4 c 0
 357 -6 297 -5 270 -3 c 0
 176 5 114 31 96 69 c 0
 91 79 88 90 89 96 c 0
 92 104 111 115 138 121 c 0
 152 124 177 125 188 123 c 0
 199 120 202 117 203 108 c 0
 205 89 222 68 249 57 c 0
 284 43 337 36 394 37 c 0
 412 38 415 38 423 40 c 0
 446 48 469 64 485 83 c 0
 500 101 517 129 525 153 c 0
 541 196 549 250 548 312 c 0
 547 358 541 391 532 424 c 0
 520 468 496 507 468 532 c 0
 440 556 407 572 370 577 c 0
 342 580 281 576 255 570 c 0
 224 563 207 548 204 526 c 0
 202 517 201 514 197 511 c 0
 184 500 156 491 128 490 c 0
 108 490 97 492 92 498 c 2
 89 501 l 1
 89 646 l 1
 89 792 l 1
 93 796 l 2
 102 806 126 815 153 818 c 0
EndSplineSet
EndChar

StartChar: six
Encoding: 54 54 21
Width: 744
Flags: HW
LayerCount: 2
Fore
SplineSet
332 823 m 0
 342 824 409 823 428 822 c 0
 545 813 616 778 621 725 c 1
 621 718 l 1
 616 714 l 2
 600 696 537 684 514 694 c 0
 509 697 507 700 506 710 c 0
 503 735 480 755 441 767 c 0
 411 776 384 780 339 782 c 2
 317 782 l 1
 309 776 l 2
 291 763 273 739 258 708 c 0
 247 686 234 652 226 620 c 0
 221 602 216 579 216 578 c 1
 217 578 221 580 226 582 c 0
 269 605 328 618 385 620 c 0
 477 623 554 593 598 538 c 0
 631 498 650 445 657 382 c 0
 662 342 662 290 657 250 c 0
 649 178 625 121 586 80 c 0
 537 30 452 -2 359 -5 c 0
 267 -8 190 22 146 77 c 0
 109 123 89 183 84 262 c 0
 82 294 83 377 86 426 c 0
 92 523 107 602 134 669 c 0
 169 759 222 804 308 819 c 0
 315 821 327 822 332 823 c 0
382 573 m 0
 366 577 341 579 331 577 c 0
 305 572 277 553 257 529 c 0
 215 478 195 402 197 303 c 0
 198 255 203 223 213 188 c 0
 225 145 248 107 276 82 c 0
 307 55 348 39 389 37 c 0
 404 37 416 38 426 42 c 0
 449 49 471 66 487 85 c 0
 529 136 550 211 548 312 c 0
 547 359 541 391 531 426 c 0
 519 469 496 507 468 532 c 0
 444 552 415 567 382 573 c 0
EndSplineSet
EndChar

StartChar: seven
Encoding: 55 55 22
Width: 655
Flags: HW
LayerCount: 2
Fore
SplineSet
108 818 m 0
 118 819 585 819 593 818 c 0
 601 817 608 813 610 810 c 0
 611 807 605 789 453 417 c 0
 313 74 292 26 289 23 c 0
 282 15 262 6 240 2 c 0
 226 0 201 0 193 2 c 0
 187 4 180 9 180 11 c 0
 180 12 251 185 336 395 c 2
 493 777 l 1
 276 777 l 2
 70 777 60 778 55 779 c 0
 49 781 44 787 44 790 c 0
 44 793 52 801 60 805 c 0
 72 811 90 816 108 818 c 0
EndSplineSet
EndChar

StartChar: eight
Encoding: 56 56 23
Width: 744
Flags: HW
LayerCount: 2
Fore
SplineSet
359 823 m 0
 365 823 381 824 393 824 c 0
 480 824 546 807 591 770 c 0
 626 741 647 697 652 645 c 0
 655 615 651 582 643 555 c 0
 637 540 624 515 617 505 c 0
 595 476 564 452 525 436 c 2
 513 431 l 1
 524 428 l 2
 555 418 580 402 602 382 c 0
 642 345 664 286 662 221 c 0
 660 174 649 136 625 101 c 0
 616 88 594 66 581 57 c 0
 534 24 476 5 400 -3 c 0
 377 -5 321 -5 302 -3 c 0
 230 4 180 23 143 58 c 0
 104 94 83 151 83 213 c 0
 83 281 109 340 155 377 c 0
 172 391 200 408 223 417 c 2
 230 419 l 1
 220 423 l 2
 173 439 142 464 120 499 c 0
 79 566 82 664 128 725 c 0
 169 780 253 816 359 823 c 0
389 780 m 0
 378 781 336 782 328 781 c 0
 303 779 293 776 279 768 c 0
 243 749 218 712 209 666 c 0
 199 613 207 557 233 519 c 0
 259 480 301 457 357 449 c 0
 373 447 419 447 432 449 c 0
 450 452 467 460 483 472 c 0
 497 483 510 499 519 517 c 0
 551 577 545 665 507 716 c 0
 495 731 485 741 468 752 c 0
 446 766 419 775 389 780 c 0
385 402 m 0
 374 403 333 404 323 403 c 0
 306 401 290 397 278 390 c 0
 232 365 204 316 198 253 c 0
 192 183 213 118 256 82 c 0
 285 58 318 44 361 39 c 0
 376 37 420 37 432 39 c 0
 459 44 480 56 500 75 c 0
 530 106 546 150 548 204 c 0
 550 267 528 324 489 358 c 0
 461 382 427 397 385 402 c 0
EndSplineSet
EndChar

StartChar: nine
Encoding: 57 57 24
Width: 744
Flags: HW
LayerCount: 2
Fore
SplineSet
373 823 m 0
 382 824 412 824 424 823 c 0
 500 817 560 789 598 742 c 0
 635 696 655 636 660 557 c 0
 662 525 661 442 658 393 c 0
 652 296 637 218 610 151 c 0
 575 61 522 15 437 0 c 0
 414 -4 400 -5 364 -5 c 0
 347 -4 324 -4 317 -3 c 0
 199 6 129 41 124 94 c 1
 124 101 l 1
 128 105 l 2
 144 123 207 135 230 125 c 0
 235 122 238 120 239 110 c 0
 242 85 264 64 303 52 c 0
 333 43 361 39 406 37 c 2
 427 37 l 1
 435 43 l 2
 453 56 471 81 486 112 c 0
 497 134 510 168 518 200 c 0
 523 218 528 241 528 242 c 1
 527 242 523 240 518 238 c 0
 475 215 416 202 359 200 c 0
 267 197 190 227 146 282 c 0
 103 334 83 408 83 504 c 0
 83 589 99 655 133 707 c 0
 160 748 197 777 250 797 c 0
 286 812 324 819 373 823 c 0
382 778 m 0
 366 782 341 783 331 781 c 0
 305 776 277 758 257 734 c 0
 215 683 195 607 197 508 c 0
 198 460 203 428 213 393 c 0
 225 350 248 312 276 287 c 0
 307 260 348 244 389 242 c 0
 404 242 416 243 426 247 c 0
 449 254 471 271 487 290 c 0
 529 341 550 416 548 517 c 0
 547 564 541 596 531 631 c 0
 519 674 496 712 468 737 c 0
 444 757 415 772 382 778 c 0
EndSplineSet
EndChar

StartChar: colon
Encoding: 58 58 25
Width: 250
Flags: HW
LayerCount: 2
Fore
SplineSet
135 613 m 0
 169 617 196 610 194 598 c 0
 192 594 183 587 174 582 c 0
 135 563 70 558 59 574 c 0
 56 578 57 583 63 588 c 0
 74 599 105 610 135 613 c 0
135 49 m 0
 169 53 196 46 194 34 c 0
 192 30 183 22 174 17 c 0
 135 -2 70 -6 59 10 c 0
 56 14 57 19 63 24 c 0
 74 35 105 46 135 49 c 0
EndSplineSet
EndChar

StartChar: semicolon
Encoding: 59 59 26
Width: 250
Flags: HW
LayerCount: 2
Fore
SplineSet
135 617 m 0
 169 621 196 614 194 602 c 0
 192 598 183 591 174 586 c 0
 135 567 70 563 59 579 c 0
 56 583 57 587 63 592 c 0
 74 603 105 614 135 617 c 0
132 41 m 0
 136 41 145 42 153 42 c 0
 168 41 175 39 179 35 c 2
 182 32 l 1
 182 16 l 2
 181 -9 177 -32 172 -54 c 0
 164 -87 144 -134 136 -141 c 0
 128 -147 112 -155 92 -159 c 0
 75 -162 49 -163 40 -160 c 0
 33 -157 29 -154 29 -151 c 0
 29 -149 31 -142 34 -137 c 0
 54 -96 67 -49 69 -1 c 2
 69 14 l 1
 73 19 l 2
 82 28 104 37 132 41 c 0
EndSplineSet
EndChar

StartChar: less
Encoding: 60 60 27
Width: 817
Flags: HW
LayerCount: 2
Fore
SplineSet
726 613 m 0
 734 614 757 613 762 611 c 0
 768 610 773 605 773 602 c 0
 773 598 765 591 754 586 c 0
 748 583 615 520 458 447 c 0
 301 374 173 314 173 314 c 1
 173 314 307 251 471 175 c 0
 668 84 769 36 771 34 c 0
 774 31 774 29 769 23 c 0
 761 15 742 6 719 2 c 0
 706 0 685 -1 677 1 c 0
 671 2 596 36 359 146 c 0
 189 226 48 292 47 293 c 0
 44 296 44 298 45 302 c 0
 48 306 52 310 61 314 c 0
 71 319 683 603 687 605 c 0
 696 608 714 612 726 613 c 0
EndSplineSet
EndChar

StartChar: equal
Encoding: 61 61 28
Width: 817
Flags: HW
LayerCount: 2
Fore
SplineSet
108 430 m 0
 112 430 259 431 435 431 c 0
 743 431 757 430 762 429 c 0
 768 427 773 422 773 419 c 0
 773 418 771 415 769 412 c 0
 761 404 743 396 719 391 c 0
 710 390 691 390 386 390 c 0
 76 390 61 390 56 391 c 0
 49 393 44 398 44 401 c 0
 44 404 52 413 60 417 c 0
 72 423 90 428 108 430 c 0
108 225 m 0
 112 225 259 226 435 226 c 0
 743 226 757 225 762 224 c 0
 768 222 773 217 773 214 c 0
 773 213 771 210 769 207 c 0
 761 199 743 191 719 186 c 0
 710 185 691 185 386 185 c 0
 76 185 61 185 56 186 c 0
 49 188 44 194 44 197 c 0
 44 200 52 208 60 212 c 0
 72 218 90 223 108 225 c 0
EndSplineSet
EndChar

StartChar: greater
Encoding: 62 62 29
Width: 817
Flags: HW
LayerCount: 2
Fore
SplineSet
108 613 m 0
 118 614 134 614 141 613 c 0
 146 612 233 572 458 468 c 0
 628 388 769 323 770 322 c 0
 773 319 773 316 772 312 c 0
 769 308 765 304 756 300 c 0
 746 295 134 11 131 9 c 0
 125 7 112 4 104 2 c 0
 91 0 64 0 56 2 c 0
 49 4 44 9 44 12 c 0
 44 16 52 24 63 29 c 0
 69 32 202 94 359 167 c 0
 516 240 644 300 644 300 c 1
 644 300 510 363 346 439 c 0
 149 530 48 579 46 581 c 0
 43 584 43 586 48 591 c 0
 57 601 81 610 108 613 c 0
EndSplineSet
EndChar

StartChar: question
Encoding: 63 63 30
Width: 655
Flags: HW
LayerCount: 2
Fore
SplineSet
324 823 m 0
 336 824 371 824 384 823 c 0
 508 814 581 758 604 658 c 0
 609 635 610 624 610 595 c 0
 610 566 609 551 604 531 c 0
 599 503 584 473 570 453 c 0
 562 442 541 420 529 411 c 0
 492 382 444 362 395 353 c 1
 385 352 l 1
 385 231 l 2
 385 114 385 111 383 108 c 0
 380 104 376 100 366 95 c 0
 348 87 325 83 301 83 c 0
 285 84 278 85 274 90 c 2
 271 93 l 1
 271 228 l 1
 271 364 l 1
 275 368 l 2
 283 376 300 383 323 387 c 0
 332 389 336 389 360 389 c 2
 388 390 l 1
 396 393 l 2
 413 400 431 413 446 427 c 0
 473 455 490 494 496 543 c 0
 498 559 498 600 496 616 c 0
 492 640 487 658 479 677 c 0
 453 738 400 774 326 781 c 0
 312 782 284 782 273 780 c 0
 263 778 249 773 239 768 c 0
 190 739 162 684 158 607 c 0
 158 591 156 589 148 584 c 0
 132 573 106 566 79 566 c 0
 60 565 52 567 47 572 c 2
 44 575 l 1
 44 591 l 2
 46 631 55 662 70 694 c 0
 79 712 88 726 101 739 c 0
 147 787 226 817 324 823 c 0
338 41 m 0
 368 44 388 38 384 28 c 0
 381 22 371 15 355 9 c 0
 322 -3 279 -3 271 8 c 0
 270 11 270 11 271 14 c 0
 272 18 278 23 285 27 c 0
 295 32 322 40 338 41 c 0
EndSplineSet
EndChar

StartChar: at
Encoding: 64 64 31
Width: 987
Flags: HW
LayerCount: 2
Fore
SplineSet
478 761 m 0
 484 761 501 762 514 762 c 0
 618 762 706 738 771 693 c 0
 809 666 838 631 861 588 c 0
 888 535 902 475 904 402 c 0
 905 357 900 332 886 302 c 0
 878 286 868 273 857 262 c 0
 826 233 777 216 725 213 c 0
 706 213 684 215 673 219 c 0
 672 220 671 218 669 212 c 0
 650 159 601 125 526 113 c 0
 495 108 467 107 444 111 c 0
 412 116 389 129 367 152 c 0
 336 184 316 237 309 308 c 0
 307 332 307 406 309 429 c 0
 314 492 328 538 352 575 c 0
 360 587 380 606 392 614 c 0
 437 645 503 656 561 644 c 0
 595 638 619 625 638 606 c 0
 662 582 675 551 679 509 c 0
 680 502 680 456 680 395 c 0
 680 340 680 294 681 294 c 2
 681 294 685 295 689 295 c 0
 714 300 742 297 746 290 c 0
 747 289 749 285 749 282 c 0
 750 276 754 264 756 264 c 0
 758 264 769 282 775 292 c 0
 781 305 784 317 787 334 c 0
 789 344 790 349 790 376 c 0
 790 450 777 511 750 564 c 0
 718 626 670 669 605 695 c 0
 549 718 476 726 415 716 c 0
 325 702 254 638 220 542 c 0
 210 512 203 477 199 440 c 0
 197 414 197 358 199 334 c 0
 211 223 250 145 324 91 c 0
 375 53 440 32 492 36 c 0
 516 37 532 37 538 35 c 0
 548 32 552 27 549 22 c 0
 545 13 525 3 500 -2 c 0
 457 -10 398 -8 351 2 c 0
 274 18 205 61 160 117 c 0
 125 160 101 216 90 282 c 0
 85 313 84 330 84 370 c 0
 84 421 87 455 97 494 c 0
 110 545 129 585 159 623 c 0
 168 634 193 660 205 669 c 0
 272 722 363 753 478 761 c 0
503 611 m 0
 498 613 489 614 484 614 c 2
 477 615 l 1
 470 610 l 2
 460 604 447 591 440 581 c 0
 424 556 412 522 406 483 c 0
 401 452 399 436 399 385 c 0
 399 334 400 318 404 287 c 0
 417 212 450 161 495 145 c 0
 503 142 505 142 514 142 c 0
 524 142 525 142 532 145 c 0
 556 157 575 184 584 218 c 0
 589 241 589 246 589 372 c 0
 589 470 589 491 587 502 c 0
 583 541 568 573 544 592 c 0
 533 600 516 608 503 611 c 0
EndSplineSet
EndChar

StartChar: A
Encoding: 65 65 32
Width: 780
Flags: HW
LayerCount: 2
Fore
SplineSet
360 818 m 0
 367 819 463 819 469 818 c 0
 479 816 484 813 486 808 c 0
 487 805 540 630 601 417 c 0
 681 144 714 30 713 28 c 0
 711 19 690 8 663 3 c 0
 648 0 620 0 612 2 c 0
 601 6 606 -9 555 168 c 2
 509 327 l 1
 388 327 l 1
 267 327 l 1
 223 176 l 2
 179 28 179 26 175 23 c 0
 168 15 148 6 126 2 c 0
 112 0 87 0 79 2 c 0
 72 4 67 9 67 12 c 0
 67 13 281 748 292 784 c 0
 295 795 299 800 310 806 c 0
 323 812 340 816 360 818 c 0
441 555 m 0
 411 656 388 740 388 740 c 2
 387 740 280 371 280 370 c 0
 280 369 328 369 388 369 c 0
 461 369 496 369 496 370 c 0
 496 371 471 454 441 555 c 0
EndSplineSet
EndChar

StartChar: B
Encoding: 66 66 33
Width: 744
Flags: HW
LayerCount: 2
Fore
SplineSet
153 818 m 0
 157 818 165 819 173 819 c 0
 187 818 196 816 200 812 c 2
 203 809 l 1
 203 419 l 2
 203 39 203 28 201 25 c 0
 197 19 183 11 167 6 c 0
 151 2 140 1 124 1 c 0
 105 0 97 2 92 7 c 2
 89 10 l 1
 89 400 l 1
 89 792 l 1
 93 796 l 2
 102 806 125 814 153 818 c 0
273 818 m 0
 282 819 344 818 369 816 c 0
 453 810 518 792 569 761 c 0
 613 733 643 691 653 642 c 0
 656 627 656 593 653 575 c 0
 644 525 623 486 588 458 c 0
 571 444 544 428 520 419 c 2
 512 416 l 1
 525 412 l 2
 568 397 602 374 626 342 c 0
 634 331 645 307 650 293 c 0
 664 251 664 208 652 173 c 0
 635 123 597 84 539 55 c 0
 465 19 373 1 264 1 c 0
 231 1 227 1 222 2 c 0
 215 4 210 9 210 12 c 0
 210 18 228 30 246 35 c 0
 263 40 271 41 305 42 c 0
 363 44 387 46 417 54 c 0
 440 59 464 71 479 81 c 0
 514 105 538 140 545 179 c 0
 549 198 548 226 543 251 c 0
 536 288 518 320 492 342 c 0
 463 366 426 381 382 386 c 0
 376 387 346 388 300 388 c 0
 233 389 226 389 221 390 c 0
 215 392 210 397 210 400 c 0
 210 406 228 418 246 423 c 0
 268 429 267 429 346 430 c 0
 394 431 422 431 427 432 c 0
 479 440 521 480 535 537 c 0
 541 557 542 570 542 593 c 0
 542 610 542 616 540 625 c 0
 533 659 514 689 487 713 c 0
 452 743 397 764 336 772 c 0
 312 775 295 776 259 777 c 0
 223 778 218 779 213 784 c 0
 209 788 209 791 214 796 c 0
 223 806 245 814 273 818 c 0
EndSplineSet
EndChar

StartChar: C
Encoding: 67 67 34
Width: 744
Flags: HW
LayerCount: 2
Fore
SplineSet
375 823 m 0
 383 824 455 823 472 822 c 0
 587 812 660 776 679 720 c 0
 682 711 684 697 683 693 c 0
 680 684 661 674 634 668 c 0
 620 665 595 664 584 666 c 0
 574 669 569 672 569 679 c 0
 569 696 559 717 544 732 c 0
 511 765 446 782 358 782 c 0
 343 782 342 782 336 779 c 0
 310 769 281 745 262 716 c 0
 226 663 206 589 199 493 c 0
 196 449 197 367 201 325 c 0
 208 243 226 179 257 129 c 0
 284 84 326 52 372 40 c 0
 382 38 383 38 414 38 c 0
 459 38 484 41 507 49 c 0
 543 61 564 85 568 116 c 0
 570 129 570 129 574 133 c 0
 586 144 615 154 644 155 c 0
 664 155 675 153 680 147 c 0
 684 144 684 140 681 127 c 0
 673 88 640 56 584 33 c 0
 537 14 487 2 418 -3 c 0
 394 -5 325 -5 313 -3 c 0
 258 4 215 25 179 61 c 0
 160 80 147 98 133 127 c 0
 96 201 81 288 83 420 c 0
 84 474 87 507 93 545 c 0
 103 608 124 665 153 709 c 0
 179 747 217 779 262 797 c 0
 292 810 327 819 360 822 c 0
 366 823 373 823 375 823 c 0
EndSplineSet
EndChar

StartChar: D
Encoding: 68 68 35
Width: 721
Flags: HW
LayerCount: 2
Fore
SplineSet
153 818 m 0
 157 818 165 819 173 819 c 0
 187 818 196 816 200 812 c 2
 203 809 l 1
 203 419 l 2
 203 39 203 28 201 25 c 0
 197 19 183 11 167 6 c 0
 151 2 140 1 124 1 c 0
 105 0 97 2 92 7 c 2
 89 10 l 1
 89 400 l 1
 89 792 l 1
 93 796 l 2
 102 806 125 814 153 818 c 0
273 818 m 0
 288 820 325 819 353 815 c 0
 447 804 521 769 571 711 c 0
 632 639 662 535 660 404 c 0
 658 320 645 258 617 199 c 0
 608 179 592 151 577 133 c 0
 568 121 543 98 531 88 c 0
 518 78 498 64 484 56 c 0
 419 21 333 1 252 1 c 0
 232 1 227 1 222 2 c 0
 215 4 210 9 210 12 c 0
 210 16 218 24 227 29 c 0
 245 37 263 41 295 42 c 0
 338 44 361 50 392 66 c 0
 422 80 447 100 469 127 c 0
 519 190 544 273 547 387 c 0
 549 515 521 612 464 682 c 0
 421 732 358 765 284 774 c 0
 277 775 261 776 249 777 c 0
 224 778 218 779 213 784 c 0
 209 788 209 791 214 796 c 0
 223 806 246 815 273 818 c 0
EndSplineSet
EndChar

StartChar: E
Encoding: 69 69 36
Width: 721
Flags: HW
LayerCount: 2
Fore
SplineSet
153 818 m 0
 157 818 165 819 173 819 c 0
 187 818 196 816 200 812 c 2
 203 809 l 1
 203 419 l 2
 203 39 203 28 201 25 c 0
 197 19 183 11 167 6 c 0
 151 2 140 1 124 1 c 0
 105 0 97 2 92 7 c 2
 89 10 l 1
 89 400 l 1
 89 792 l 1
 93 796 l 2
 102 806 125 814 153 818 c 0
273 818 m 0
 277 818 360 819 457 819 c 0
 604 819 634 819 639 818 c 0
 647 816 651 814 654 810 c 0
 660 801 638 787 604 780 c 2
 593 778 l 1
 411 778 l 2
 237 778 227 778 222 779 c 0
 215 781 210 787 210 790 c 0
 210 793 218 801 226 805 c 0
 238 811 255 816 273 818 c 0
273 430 m 0
 283 431 589 431 597 430 c 0
 605 429 612 425 614 422 c 0
 615 419 615 419 614 416 c 0
 609 407 589 396 561 391 c 0
 552 390 541 390 390 390 c 0
 236 390 227 390 222 391 c 0
 215 393 210 398 210 401 c 0
 210 404 218 413 226 417 c 0
 238 423 255 428 273 430 c 0
273 41 m 0
 277 41 360 42 457 42 c 0
 604 42 634 42 639 41 c 0
 647 39 651 37 654 33 c 0
 660 24 638 10 604 3 c 2
 593 1 l 1
 411 1 l 2
 237 1 227 1 222 2 c 0
 215 4 210 9 210 12 c 0
 210 15 218 24 226 28 c 0
 238 34 255 39 273 41 c 0
EndSplineSet
EndChar

StartChar: F
Encoding: 70 70 37
Width: 721
Flags: HW
LayerCount: 2
Fore
SplineSet
153 818 m 0
 157 818 165 819 173 819 c 0
 187 818 196 816 200 812 c 2
 203 809 l 1
 203 419 l 2
 203 39 203 28 201 25 c 0
 197 19 183 11 167 6 c 0
 151 2 140 1 124 1 c 0
 105 0 97 2 92 7 c 2
 89 10 l 1
 89 400 l 1
 89 792 l 1
 93 796 l 2
 102 806 125 814 153 818 c 0
273 818 m 0
 277 818 360 819 457 819 c 0
 604 819 634 819 639 818 c 0
 647 816 651 814 654 810 c 0
 660 801 638 787 604 780 c 2
 593 778 l 1
 411 778 l 2
 237 778 227 778 222 779 c 0
 215 781 210 787 210 790 c 0
 210 793 218 801 226 805 c 0
 238 811 255 816 273 818 c 0
273 430 m 0
 283 431 589 431 597 430 c 0
 605 429 612 425 614 422 c 0
 615 419 615 419 614 416 c 0
 609 407 589 396 561 391 c 0
 552 390 541 390 390 390 c 0
 236 390 227 390 222 391 c 0
 215 393 210 398 210 401 c 0
 210 404 218 413 226 417 c 0
 238 423 255 428 273 430 c 0
EndSplineSet
EndChar

StartChar: G
Encoding: 71 71 38
Width: 744
Flags: HW
LayerCount: 2
Fore
SplineSet
375 823 m 0
 383 824 455 823 472 822 c 0
 587 812 660 776 679 720 c 0
 682 711 684 697 683 693 c 0
 680 684 661 674 634 668 c 0
 620 665 595 664 584 666 c 0
 574 669 569 672 569 679 c 0
 569 696 559 717 544 732 c 0
 511 765 446 782 358 782 c 0
 343 782 342 782 336 779 c 0
 310 769 281 745 262 716 c 0
 226 663 206 589 199 493 c 0
 196 449 197 367 201 325 c 0
 208 243 226 179 257 129 c 0
 284 84 326 52 372 40 c 0
 382 38 383 38 414 38 c 0
 469 38 499 43 525 56 c 0
 544 66 561 86 567 106 c 0
 568 111 568 121 569 251 c 2
 569 389 l 1
 479 389 l 2
 397 390 389 390 384 391 c 0
 377 394 373 397 373 401 c 0
 373 408 390 419 409 424 c 0
 432 431 425 431 551 431 c 0
 659 431 666 430 671 429 c 0
 675 428 679 426 680 424 c 2
 683 421 l 1
 683 279 l 2
 683 120 683 128 677 111 c 0
 664 79 632 52 584 33 c 0
 537 14 487 2 418 -3 c 0
 394 -5 325 -5 313 -3 c 0
 258 4 215 25 179 61 c 0
 160 80 147 98 133 127 c 0
 96 201 81 288 83 420 c 0
 84 474 87 507 93 545 c 0
 103 608 124 665 153 709 c 0
 179 747 217 779 262 797 c 0
 292 810 327 819 360 822 c 0
 366 823 373 823 375 823 c 0
EndSplineSet
EndChar

StartChar: H
Encoding: 72 72 39
Width: 744
Flags: HW
LayerCount: 2
Fore
SplineSet
153 818 m 0
 157 818 165 819 173 819 c 0
 187 818 196 816 200 812 c 2
 203 809 l 1
 203 419 l 2
 203 39 203 28 201 25 c 0
 197 19 183 11 167 6 c 0
 151 2 140 1 124 1 c 0
 105 0 97 2 92 7 c 2
 89 10 l 1
 89 400 l 1
 89 792 l 1
 93 796 l 2
 102 806 125 814 153 818 c 0
606 818 m 0
 610 818 619 819 627 819 c 0
 641 818 649 816 653 812 c 2
 656 809 l 1
 656 419 l 2
 656 39 656 28 654 25 c 0
 650 19 637 11 621 6 c 0
 605 2 594 1 578 1 c 0
 559 0 551 2 546 7 c 2
 543 10 l 1
 543 400 l 1
 543 792 l 1
 547 796 l 2
 556 806 578 814 606 818 c 0
273 451 m 0
 277 451 333 452 399 452 c 0
 511 451 518 451 523 450 c 0
 529 448 535 442 535 439 c 0
 535 433 517 422 499 417 c 0
 475 410 482 411 349 411 c 0
 234 411 227 411 222 412 c 0
 215 414 210 419 210 422 c 0
 210 425 218 433 226 437 c 0
 238 443 255 449 273 451 c 0
EndSplineSet
EndChar

StartChar: I
Encoding: 73 73 40
Width: 460
Flags: HW
LayerCount: 2
Fore
SplineSet
119 818 m 0
 121 819 181 819 254 819 c 0
 366 819 387 819 392 818 c 0
 400 816 406 813 408 810 c 0
 409 807 409 807 408 803 c 0
 403 795 382 785 355 779 c 0
 349 778 339 778 317 777 c 2
 288 777 l 1
 288 410 l 1
 288 42 l 1
 337 42 l 2
 376 42 387 42 392 41 c 0
 400 39 406 36 408 33 c 0
 409 30 409 30 408 26 c 0
 403 18 384 9 357 3 c 0
 348 1 346 1 212 0 c 0
 94 0 75 0 69 1 c 0
 61 3 55 6 53 9 c 0
 52 12 52 12 54 16 c 0
 58 24 78 34 105 40 c 0
 111 41 121 41 144 42 c 2
 174 42 l 1
 174 410 l 1
 174 777 l 1
 125 777 l 2
 85 777 74 777 69 778 c 0
 61 780 55 783 53 786 c 0
 52 789 52 790 54 794 c 0
 59 804 90 816 119 818 c 0
EndSplineSet
EndChar

StartChar: J
Encoding: 74 74 41
Width: 618
Flags: HW
LayerCount: 2
Fore
SplineSet
361 818 m 0
 363 819 424 819 497 819 c 0
 609 819 630 819 635 818 c 0
 643 816 648 813 650 810 c 0
 651 807 651 807 650 803 c 0
 645 795 625 785 598 779 c 0
 592 778 582 778 560 777 c 2
 530 777 l 1
 530 519 l 2
 529 238 530 252 524 216 c 0
 517 173 504 138 486 106 c 0
 451 49 390 14 302 2 c 0
 284 0 243 0 227 2 c 0
 160 12 114 44 84 96 c 0
 59 141 46 196 44 268 c 0
 44 294 44 294 54 301 c 0
 71 312 102 319 129 318 c 0
 143 317 152 315 155 311 c 0
 158 308 158 308 158 286 c 0
 161 205 176 146 207 103 c 0
 229 72 261 51 295 44 c 0
 310 41 314 41 323 46 c 0
 350 59 370 82 387 119 c 0
 400 148 410 182 415 228 c 0
 416 242 416 268 417 511 c 2
 417 777 l 1
 368 777 l 2
 328 777 316 777 311 778 c 0
 303 780 298 783 296 786 c 0
 295 789 295 790 297 794 c 0
 302 804 332 816 361 818 c 0
EndSplineSet
EndChar

StartChar: K
Encoding: 75 75 42
Width: 721
Flags: HW
LayerCount: 2
Fore
SplineSet
153 818 m 0
 157 818 165 819 173 819 c 0
 187 818 195 816 200 813 c 2
 203 810 l 1
 203 656 l 1
 204 503 l 1
 377 652 l 2
 541 792 551 801 560 806 c 0
 575 813 595 818 618 819 c 0
 643 820 658 814 654 804 c 0
 653 802 610 764 509 677 c 0
 423 603 365 552 365 551 c 0
 365 550 429 434 508 293 c 0
 588 153 653 36 654 34 c 0
 655 30 655 30 654 27 c 0
 650 18 630 8 604 3 c 0
 589 0 562 0 554 2 c 0
 551 3 547 5 546 6 c 0
 544 7 485 114 412 243 c 0
 339 372 280 477 280 478 c 0
 279 479 269 471 241 446 c 2
 203 415 l 1
 203 221 l 2
 203 35 203 28 201 25 c 0
 197 19 183 11 167 6 c 0
 151 2 140 1 124 1 c 0
 105 0 97 2 92 7 c 2
 89 10 l 1
 89 400 l 1
 89 792 l 1
 93 796 l 2
 102 806 125 814 153 818 c 0
EndSplineSet
EndChar

StartChar: L
Encoding: 76 76 43
Width: 699
Flags: HW
LayerCount: 2
Fore
SplineSet
153 818 m 0
 157 818 165 819 173 819 c 0
 187 818 196 816 200 812 c 2
 203 809 l 1
 203 419 l 2
 203 39 203 28 201 25 c 0
 197 19 183 11 167 6 c 0
 151 2 140 1 124 1 c 0
 105 0 97 2 92 7 c 2
 89 10 l 1
 89 400 l 1
 89 792 l 1
 93 796 l 2
 102 806 125 814 153 818 c 0
273 41 m 0
 277 41 361 42 460 42 c 0
 631 42 639 41 644 40 c 0
 650 38 655 33 655 30 c 0
 655 24 638 12 620 7 c 0
 596 0 611 1 410 1 c 0
 237 1 227 1 222 2 c 0
 215 4 210 9 210 12 c 0
 210 15 218 24 226 28 c 0
 238 34 255 39 273 41 c 0
EndSplineSet
EndChar

StartChar: M
Encoding: 77 77 44
Width: 1068
Flags: HW
LayerCount: 2
Fore
SplineSet
153 818 m 0
 157 818 165 819 173 819 c 0
 187 818 195 816 199 813 c 0
 201 811 275 667 371 481 c 0
 474 278 540 153 540 154 c 0
 540 155 614 299 703 474 c 0
 823 707 868 795 871 797 c 0
 875 802 891 809 902 812 c 0
 918 817 929 818 946 818 c 0
 964 819 972 817 977 812 c 2
 980 809 l 1
 980 419 l 2
 980 39 980 28 978 25 c 0
 974 19 960 11 944 6 c 0
 928 2 917 1 901 1 c 0
 882 0 874 2 869 7 c 2
 866 10 l 1
 866 297 l 1
 866 585 l 1
 728 314 l 2
 574 14 588 40 573 33 c 0
 556 25 535 20 512 20 c 0
 495 19 486 22 481 27 c 0
 479 29 432 119 341 298 c 2
 203 567 l 1
 203 298 l 2
 203 36 203 28 201 25 c 0
 197 19 183 11 167 6 c 0
 151 2 140 1 124 1 c 0
 105 0 97 2 92 7 c 2
 89 10 l 1
 89 400 l 1
 89 792 l 1
 93 796 l 2
 102 806 125 814 153 818 c 0
EndSplineSet
EndChar

StartChar: N
Encoding: 78 78 45
Width: 744
Flags: HW
LayerCount: 2
Fore
SplineSet
153 818 m 0
 157 818 165 819 173 819 c 0
 187 818 196 816 200 812 c 0
 201 811 279 678 373 518 c 2
 543 226 l 1
 543 510 l 1
 544 793 l 1
 548 797 l 2
 552 802 567 809 579 812 c 0
 595 817 606 818 623 818 c 0
 641 819 648 817 653 812 c 2
 656 809 l 1
 656 419 l 2
 656 39 656 28 654 25 c 0
 650 19 637 11 621 6 c 0
 605 2 594 1 578 1 c 0
 559 0 551 2 546 7 c 0
 545 8 467 141 374 301 c 2
 204 593 l 1
 203 309 l 2
 203 47 202 27 201 25 c 0
 197 19 182 11 167 6 c 0
 151 2 140 1 124 1 c 0
 105 0 97 2 92 7 c 2
 89 10 l 1
 89 400 l 1
 89 792 l 1
 93 796 l 2
 102 806 125 814 153 818 c 0
EndSplineSet
EndChar

StartChar: O
Encoding: 79 79 46
Width: 942
Flags: HW
LayerCount: 2
Fore
SplineSet
458 823 m 0
 464 823 480 824 492 824 c 0
 621 825 725 786 790 711 c 0
 838 657 867 583 877 494 c 0
 884 428 880 349 868 293 c 0
 842 173 781 91 682 44 c 0
 566 -10 407 -21 290 18 c 0
 215 44 160 89 121 152 c 0
 80 221 59 310 61 415 c 0
 62 457 67 494 74 526 c 0
 100 646 161 728 260 775 c 0
 317 802 384 818 458 823 c 0
494 779 m 0
 476 781 436 782 419 781 c 0
 393 779 366 772 344 762 c 0
 314 750 283 727 263 703 c 0
 206 637 178 552 175 432 c 0
 173 302 203 201 265 131 c 0
 316 74 395 40 484 37 c 0
 537 36 581 45 621 69 c 0
 643 81 664 99 679 116 c 0
 736 182 764 267 767 388 c 0
 769 517 739 618 677 688 c 0
 633 737 569 769 494 779 c 0
EndSplineSet
EndChar

StartChar: P
Encoding: 80 80 47
Width: 721
Flags: HW
LayerCount: 2
Fore
SplineSet
153 818 m 0
 157 818 165 819 173 819 c 0
 187 818 196 816 200 812 c 2
 203 809 l 1
 203 419 l 2
 203 39 203 28 201 25 c 0
 197 19 183 11 167 6 c 0
 151 2 140 1 124 1 c 0
 105 0 97 2 92 7 c 2
 89 10 l 1
 89 400 l 1
 89 792 l 1
 93 796 l 2
 102 806 125 814 153 818 c 0
273 818 m 0
 289 820 343 819 383 815 c 0
 484 807 567 776 611 729 c 0
 636 703 650 676 657 642 c 0
 668 588 648 530 603 486 c 0
 557 443 476 410 380 397 c 0
 325 389 237 385 221 390 c 0
 215 392 210 397 210 400 c 0
 210 406 228 418 246 423 c 0
 263 428 271 429 306 430 c 0
 354 431 381 434 407 439 c 0
 431 444 460 457 478 469 c 0
 504 485 527 514 537 542 c 0
 557 595 546 652 508 696 c 0
 479 729 431 754 371 767 c 0
 338 773 310 776 260 777 c 0
 223 778 218 779 213 784 c 0
 209 788 209 791 214 796 c 0
 223 806 246 815 273 818 c 0
EndSplineSet
EndChar

StartChar: Q
Encoding: 81 81 48
Width: 942
Flags: HW
LayerCount: 2
Fore
SplineSet
458 823 m 0
 464 823 480 824 492 824 c 0
 621 825 725 786 790 711 c 0
 852 639 883 534 881 404 c 0
 880 371 877 349 873 323 c 0
 862 244 834 177 792 127 c 0
 788 122 784 118 783 117 c 2
 783 117 799 98 817 75 c 0
 836 52 852 33 853 32 c 0
 855 25 843 15 824 9 c 0
 810 3 792 1 775 1 c 0
 757 0 749 2 743 7 c 0
 741 8 732 20 722 31 c 0
 713 43 703 53 703 53 c 2
 703 54 695 51 686 46 c 0
 635 21 575 5 513 -1 c 0
 370 -16 247 16 170 89 c 0
 113 144 77 226 66 326 c 0
 59 392 62 470 74 526 c 0
 100 646 161 728 260 775 c 0
 317 802 384 818 458 823 c 0
494 779 m 0
 476 781 436 782 419 781 c 0
 393 779 366 772 344 762 c 0
 314 750 283 727 263 703 c 0
 206 637 178 552 175 432 c 0
 173 302 203 201 265 131 c 0
 316 74 395 40 484 37 c 0
 546 35 598 50 642 82 c 0
 651 89 663 99 664 100 c 2
 664 100 648 118 630 141 c 0
 612 164 595 183 594 184 c 0
 593 187 593 187 595 190 c 0
 602 203 639 216 673 216 c 0
 686 216 694 215 700 212 c 0
 702 212 708 206 714 199 c 0
 720 192 725 186 725 186 c 2
 726 186 735 209 740 224 c 0
 756 271 765 323 767 388 c 0
 769 517 739 618 677 688 c 0
 633 737 569 769 494 779 c 0
EndSplineSet
EndChar

StartChar: R
Encoding: 82 82 49
Width: 744
Flags: HW
LayerCount: 2
Fore
SplineSet
153 818 m 0
 157 818 165 819 173 819 c 0
 187 818 196 816 200 812 c 2
 203 809 l 1
 203 419 l 2
 203 39 203 28 201 25 c 0
 197 19 183 11 167 6 c 0
 151 2 140 1 124 1 c 0
 105 0 97 2 92 7 c 2
 89 10 l 1
 89 400 l 1
 89 792 l 1
 93 796 l 2
 102 806 125 814 153 818 c 0
273 818 m 0
 289 820 375 817 411 813 c 0
 513 801 590 771 633 725 c 0
 677 679 692 618 673 563 c 0
 668 550 657 529 649 518 c 0
 641 506 618 484 605 474 c 0
 578 454 545 437 502 423 c 0
 483 416 446 407 442 407 c 0
 440 407 440 406 440 404 c 1
 441 404 495 319 561 217 c 0
 627 116 681 31 681 30 c 0
 681 27 677 21 672 18 c 0
 649 3 593 -5 574 4 c 0
 570 6 566 14 446 199 c 2
 323 390 l 1
 304 389 l 1
 257 389 l 2
 231 389 227 389 222 390 c 0
 215 392 210 397 210 400 c 0
 210 406 228 418 246 423 c 0
 263 428 271 429 308 430 c 0
 381 432 415 437 451 449 c 0
 478 458 496 468 513 482 c 0
 540 504 557 532 564 566 c 0
 566 575 566 581 566 596 c 0
 566 611 566 616 564 626 c 0
 556 660 537 690 507 713 c 0
 471 743 414 763 348 771 c 0
 321 775 302 776 261 777 c 0
 223 778 218 779 213 784 c 0
 209 788 209 791 214 796 c 0
 223 806 245 814 273 818 c 0
EndSplineSet
EndChar

StartChar: S
Encoding: 83 83 50
Width: 744
Flags: HW
LayerCount: 2
Fore
SplineSet
358 823 m 0
 364 823 382 824 397 824 c 0
 473 824 527 816 572 798 c 0
 609 783 634 761 646 734 c 0
 654 718 658 697 655 690 c 0
 648 678 615 667 582 665 c 0
 562 665 551 666 546 672 c 0
 544 674 543 676 543 679 c 0
 543 686 540 699 537 707 c 0
 528 729 507 749 481 760 c 0
 446 776 401 783 343 782 c 0
 309 781 296 778 279 769 c 0
 236 747 208 706 199 648 c 0
 197 633 197 601 199 589 c 0
 209 544 240 507 296 476 c 0
 327 459 360 445 415 429 c 0
 450 419 467 412 486 404 c 0
 585 365 641 315 654 249 c 0
 656 237 656 215 655 200 c 0
 652 171 646 147 634 123 c 0
 619 92 599 70 568 50 c 0
 527 22 470 4 402 -3 c 0
 393 -3 373 -4 357 -5 c 0
 219 -7 129 24 99 85 c 0
 91 101 87 122 90 129 c 0
 97 141 131 153 164 155 c 0
 184 155 195 153 200 147 c 0
 202 145 203 143 203 140 c 0
 203 133 206 121 209 113 c 0
 218 91 238 71 263 59 c 0
 296 44 337 37 392 37 c 0
 425 37 443 40 460 48 c 0
 474 55 485 63 495 74 c 0
 507 85 516 98 523 114 c 0
 536 142 544 177 543 210 c 0
 542 232 537 246 528 264 c 0
 506 307 458 344 383 373 c 0
 367 379 351 384 321 393 c 0
 253 413 207 433 169 459 c 0
 122 491 95 526 85 571 c 0
 83 583 83 617 85 633 c 0
 91 670 106 704 128 730 c 0
 172 782 252 815 358 823 c 0
EndSplineSet
EndChar

StartChar: T
Encoding: 84 84 51
Width: 699
Flags: HW
LayerCount: 2
Fore
SplineSet
133 818 m 0
 135 819 243 819 374 819 c 0
 624 819 618 819 627 815 c 0
 629 814 631 812 632 810 c 0
 638 801 617 787 582 780 c 0
 573 778 569 778 489 777 c 2
 407 777 l 1
 407 402 l 2
 407 38 406 28 404 25 c 0
 400 19 387 11 371 6 c 0
 355 2 344 1 328 1 c 0
 309 0 301 2 296 7 c 2
 293 10 l 1
 293 393 l 1
 293 777 l 1
 191 777 l 2
 107 777 88 777 83 778 c 0
 67 782 63 790 72 798 c 0
 81 807 109 816 133 818 c 0
EndSplineSet
EndChar

StartChar: U
Encoding: 85 85 52
Width: 744
Flags: HW
LayerCount: 2
Fore
SplineSet
153 818 m 0
 157 818 165 819 173 819 c 0
 187 818 196 816 200 812 c 2
 203 809 l 1
 203 516 l 2
 203 323 203 219 204 211 c 0
 210 137 244 85 300 57 c 0
 326 45 352 39 388 37 c 0
 426 36 446 41 471 56 c 0
 484 65 499 80 508 92 c 0
 520 110 532 136 537 161 c 0
 543 189 542 164 543 492 c 2
 544 793 l 1
 548 797 l 2
 552 802 567 809 579 812 c 0
 595 817 606 818 623 818 c 0
 641 819 648 817 653 812 c 2
 656 809 l 1
 656 508 l 2
 655 180 656 205 650 177 c 0
 645 150 630 119 616 99 c 0
 608 87 585 64 573 56 c 0
 544 36 518 23 480 12 c 0
 398 -12 295 -12 226 13 c 0
 192 24 168 39 146 61 c 0
 132 75 123 90 114 108 c 0
 103 130 96 151 91 183 c 0
 90 189 90 259 89 492 c 2
 89 792 l 1
 93 796 l 2
 102 806 125 814 153 818 c 0
EndSplineSet
EndChar

StartChar: V
Encoding: 86 86 53
Width: 780
Flags: HW
LayerCount: 2
Fore
SplineSet
133 818 m 0
 135 819 143 819 151 818 c 0
 165 818 172 816 176 813 c 0
 179 811 195 758 286 445 c 0
 344 243 392 79 392 79 c 1
 392 79 440 239 497 436 c 0
 601 791 601 794 605 797 c 0
 612 805 632 813 654 817 c 0
 668 819 693 819 701 817 c 0
 708 815 714 810 714 807 c 0
 714 806 499 71 488 35 c 0
 485 24 481 19 470 13 c 0
 460 9 447 5 433 2 c 0
 426 1 416 1 372 0 c 0
 317 0 308 0 300 4 c 0
 296 6 295 8 294 11 c 0
 293 14 240 189 179 402 c 0
 99 675 67 790 68 792 c 0
 70 802 101 815 133 818 c 0
EndSplineSet
EndChar

StartChar: W
Encoding: 87 87 54
Width: 1104
Flags: HW
LayerCount: 2
Fore
SplineSet
133 818 m 0
 135 819 143 819 151 818 c 0
 165 818 172 816 176 813 c 0
 179 811 185 785 259 455 c 0
 303 258 339 97 340 96 c 0
 340 95 372 224 418 421 c 0
 460 600 496 749 497 751 c 0
 499 756 504 761 515 766 c 0
 533 774 556 778 580 778 c 0
 596 777 602 776 606 771 c 0
 608 769 622 710 689 431 c 0
 751 166 769 95 769 97 c 0
 770 99 804 252 846 438 c 0
 888 623 923 779 924 784 c 0
 926 792 927 794 931 798 c 0
 943 810 975 818 1005 818 c 0
 1023 819 1030 817 1035 812 c 0
 1038 809 1038 808 1038 805 c 0
 1037 800 864 31 863 28 c 0
 861 21 844 11 828 7 c 0
 808 1 805 1 749 0 c 0
 714 0 693 0 689 1 c 0
 680 2 673 5 671 9 c 0
 671 11 643 126 610 265 c 0
 577 403 550 517 550 516 c 2
 550 516 525 406 493 273 c 0
 461 139 434 29 434 28 c 0
 430 19 412 9 385 3 c 2
 373 1 l 1
 315 1 l 2
 264 1 258 1 253 2 c 0
 250 3 246 5 244 6 c 0
 242 8 236 33 154 398 c 0
 98 651 67 790 68 792 c 0
 70 802 101 815 133 818 c 0
EndSplineSet
EndChar

StartChar: X
Encoding: 88 88 55
Width: 744
Flags: HW
LayerCount: 2
Fore
SplineSet
156 818 m 0
 172 820 188 818 195 815 c 0
 200 813 202 810 289 665 c 0
 337 584 377 516 377 516 c 2
 378 516 415 579 461 656 c 0
 520 754 546 797 549 799 c 0
 574 819 648 826 655 809 c 0
 656 806 657 805 581 679 c 0
 539 609 487 524 467 490 c 2
 430 428 l 1
 549 230 l 2
 629 97 668 31 668 29 c 0
 668 27 667 25 664 22 c 0
 646 5 584 -6 561 4 c 0
 557 6 557 7 462 165 c 2
 367 324 l 1
 278 175 l 2
 230 93 187 25 185 23 c 0
 179 16 162 8 140 3 c 0
 124 0 98 -1 89 2 c 0
 82 4 77 8 77 12 c 0
 77 13 124 93 196 213 c 0
 299 386 314 411 313 413 c 0
 312 414 262 499 201 600 c 0
 129 720 89 788 89 790 c 0
 89 793 89 794 93 798 c 0
 103 807 131 816 156 818 c 0
EndSplineSet
EndChar

StartChar: Y
Encoding: 89 89 56
Width: 744
Flags: HW
LayerCount: 2
Fore
SplineSet
156 818 m 0
 172 820 188 818 196 815 c 0
 200 813 202 809 289 669 c 0
 367 542 378 524 379 526 c 0
 380 527 417 588 462 662 c 0
 516 750 545 796 548 798 c 0
 571 818 647 827 655 810 c 0
 655 807 656 806 655 805 c 0
 654 803 603 720 542 620 c 2
 429 437 l 1
 429 232 l 2
 429 34 429 28 427 25 c 0
 423 19 409 11 393 6 c 0
 377 2 366 1 350 1 c 0
 331 0 323 2 318 7 c 2
 315 10 l 1
 315 215 l 1
 315 420 l 1
 203 603 l 2
 128 724 89 788 89 790 c 0
 89 793 89 794 93 798 c 0
 103 807 131 816 156 818 c 0
EndSplineSet
EndChar

StartChar: Z
Encoding: 90 90 57
Width: 699
Flags: HW
LayerCount: 2
Fore
SplineSet
133 818 m 0
 135 819 243 819 374 819 c 0
 577 819 610 819 616 818 c 0
 624 816 630 813 632 810 c 0
 633 807 633 807 632 804 c 0
 631 802 531 630 410 422 c 0
 288 213 188 43 188 42 c 2
 399 42 l 2
 621 42 618 42 627 38 c 0
 629 37 631 35 632 33 c 0
 638 24 617 10 582 3 c 2
 572 1 l 1
 331 0 l 2
 121 0 89 0 83 1 c 0
 75 3 70 6 68 9 c 0
 67 12 67 12 68 15 c 0
 69 17 169 189 290 397 c 0
 412 606 511 776 511 777 c 2
 300 777 l 2
 123 777 88 777 83 778 c 0
 67 782 63 790 72 798 c 0
 81 807 109 816 133 818 c 0
EndSplineSet
EndChar

StartChar: bracketleft
Encoding: 91 91 58
Width: 331
Flags: HW
LayerCount: 2
Fore
SplineSet
108 859 m 0
 112 859 150 860 193 860 c 0
 266 859 271 859 276 858 c 0
 282 856 288 851 288 848 c 0
 288 842 270 830 252 825 c 0
 233 819 227 819 191 818 c 2
 158 818 l 1
 158 410 l 1
 158 1 l 1
 214 1 l 2
 265 0 271 0 276 -1 c 0
 282 -3 288 -8 288 -11 c 0
 288 -17 270 -29 252 -34 c 0
 229 -41 231 -40 143 -40 c 0
 67 -40 61 -40 56 -39 c 0
 52 -38 48 -36 47 -34 c 2
 44 -31 l 1
 44 400 l 1
 44 833 l 1
 48 837 l 2
 57 847 81 855 108 859 c 0
EndSplineSet
EndChar

StartChar: backslash
Encoding: 92 92 59
Width: 574
Flags: HW
LayerCount: 2
Fore
SplineSet
108 818 m 0
 112 818 120 819 128 819 c 0
 142 818 150 816 154 813 c 0
 157 810 530 32 530 29 c 0
 530 26 522 18 513 13 c 0
 495 5 475 1 451 1 c 0
 434 0 425 2 421 6 c 0
 418 9 44 788 44 791 c 2
 44 791 46 794 48 796 c 0
 57 806 80 814 108 818 c 0
EndSplineSet
EndChar

StartChar: bracketright
Encoding: 93 93 60
Width: 331
Flags: HW
LayerCount: 2
Fore
SplineSet
108 859 m 0
 112 859 150 860 193 860 c 0
 266 859 271 859 276 858 c 0
 279 857 284 855 285 853 c 2
 288 850 l 1
 288 419 l 2
 288 -1 288 -13 286 -16 c 0
 281 -24 260 -34 234 -39 c 0
 225 -40 218 -40 143 -40 c 0
 67 -40 61 -40 56 -39 c 0
 49 -37 44 -32 44 -29 c 0
 44 -23 62 -11 80 -6 c 0
 99 0 104 0 140 1 c 2
 174 1 l 1
 174 410 l 1
 174 818 l 1
 118 818 l 2
 67 819 60 819 55 820 c 0
 49 822 44 827 44 830 c 0
 44 833 52 842 60 846 c 0
 72 852 90 857 108 859 c 0
EndSplineSet
EndChar

StartChar: asciicircum
Encoding: 94 94 61
Width: 412
Flags: HW
LayerCount: 2
Fore
SplineSet
213 818 m 0
 229 820 249 819 256 815 c 0
 259 813 368 711 368 709 c 0
 370 706 369 704 365 699 c 0
 360 694 345 687 333 684 c 0
 306 676 276 675 263 681 c 0
 260 682 246 695 228 712 c 0
 212 727 198 740 198 740 c 2
 197 740 186 730 174 719 c 0
 149 695 146 693 136 688 c 0
 119 681 101 678 79 678 c 0
 60 677 52 679 47 684 c 0
 43 688 43 690 47 694 c 0
 48 696 73 721 103 749 c 0
 152 796 158 801 166 805 c 0
 178 811 195 816 213 818 c 0
EndSplineSet
EndChar

StartChar: underscore
Encoding: 95 95 62
Width: 728
Flags: HW
LayerCount: 2
Fore
SplineSet
63 -1 m 0
 67 -1 213 0 388 0 c 0
 661 0 706 0 712 -1 c 0
 720 -3 725 -6 727 -9 c 0
 728 -12 728 -12 727 -16 c 0
 722 -24 702 -34 675 -40 c 0
 666 -41 649 -41 342 -41 c 0
 32 -41 17 -41 12 -40 c 0
 5 -38 0 -33 0 -30 c 0
 0 -27 8 -18 16 -14 c 0
 28 -8 45 -3 63 -1 c 0
EndSplineSet
EndChar

StartChar: a
Encoding: 97 97 63
Width: 703
Flags: HW
LayerCount: 2
Fore
SplineSet
327 618 m 0
 345 619 419 618 434 617 c 0
 508 609 561 586 590 548 c 0
 598 537 606 519 610 507 c 0
 611 502 613 496 614 495 c 0
 615 493 615 459 615 260 c 0
 615 35 615 28 613 25 c 0
 609 19 596 11 580 6 c 0
 564 2 553 1 537 1 c 0
 518 0 510 2 505 7 c 0
 502 10 502 11 502 24 c 2
 502 37 l 1
 489 31 l 2
 428 0 344 -12 267 -1 c 0
 214 6 171 25 142 54 c 0
 130 66 122 77 115 91 c 0
 100 118 91 150 89 188 c 0
 87 255 111 314 156 350 c 0
 211 395 304 419 402 414 c 0
 420 413 436 414 452 420 c 0
 476 427 490 438 497 452 c 0
 501 461 502 469 499 481 c 0
 493 501 483 520 469 535 c 0
 446 557 413 570 371 575 c 0
 357 577 308 578 285 577 c 0
 240 575 218 568 209 557 c 0
 205 552 204 549 203 539 c 0
 201 527 169 513 133 510 c 0
 114 508 95 512 90 517 c 0
 87 522 90 537 97 547 c 0
 114 573 160 594 226 607 c 0
 256 613 289 617 327 618 c 0
502 302 m 2
 502 387 l 1
 502 393 l 1
 488 389 l 2
 462 382 431 376 401 373 c 0
 389 372 359 371 323 372 c 0
 307 372 303 372 296 370 c 0
 284 367 270 359 259 351 c 0
 233 331 215 300 208 260 c 0
 201 228 201 198 208 166 c 0
 222 91 273 46 353 38 c 0
 379 35 395 37 409 45 c 0
 453 67 485 117 496 186 c 0
 501 213 501 219 502 302 c 2
EndSplineSet
EndChar

StartChar: b
Encoding: 98 98 64
Width: 703
Flags: HW
LayerCount: 2
Fore
SplineSet
153 818 m 0
 157 818 165 819 173 819 c 0
 187 818 196 816 200 812 c 2
 203 809 l 1
 203 708 l 2
 203 652 203 605 204 605 c 2
 208 607 l 2
 211 608 218 611 224 614 c 0
 254 625 290 634 329 639 c 0
 352 641 399 641 416 639 c 0
 475 630 523 604 555 565 c 0
 578 537 595 501 606 460 c 0
 616 418 622 371 621 312 c 0
 620 277 618 265 614 238 c 0
 607 186 592 140 567 104 c 0
 541 64 503 34 451 16 c 0
 412 2 369 -5 327 -5 c 0
 281 -5 235 2 203 14 c 2
 195 18 l 1
 190 16 l 2
 174 7 149 1 124 1 c 0
 105 0 97 2 92 7 c 2
 89 10 l 1
 89 400 l 1
 89 792 l 1
 93 796 l 2
 102 806 125 814 153 818 c 0
351 597 m 0
 342 598 316 599 307 598 c 0
 280 594 252 575 233 547 c 0
 220 527 211 500 206 468 c 0
 204 455 204 451 203 327 c 0
 203 193 203 183 207 163 c 0
 221 90 273 45 352 38 c 0
 372 36 382 37 392 40 c 0
 408 45 429 61 443 77 c 0
 473 112 493 160 501 221 c 0
 505 247 506 261 507 296 c 0
 508 366 500 422 484 467 c 0
 475 495 457 525 441 544 c 0
 418 570 385 589 351 597 c 0
EndSplineSet
EndChar

StartChar: c
Encoding: 99 99 65
Width: 703
Flags: HW
LayerCount: 2
Fore
SplineSet
353 618 m 0
 360 619 428 618 442 617 c 0
 449 616 464 615 474 613 c 0
 541 604 588 583 606 552 c 0
 613 540 617 522 614 516 c 0
 609 508 591 499 566 494 c 0
 552 491 527 490 516 492 c 0
 506 495 503 498 502 507 c 0
 501 516 498 523 492 532 c 0
 469 562 416 578 336 578 c 0
 318 578 311 576 298 569 c 0
 246 542 210 475 201 386 c 0
 195 337 196 271 203 227 c 0
 212 172 230 127 259 93 c 0
 282 66 315 47 351 40 c 0
 367 36 419 37 443 41 c 0
 478 46 498 62 501 88 c 0
 503 98 504 100 509 104 c 0
 522 114 549 123 577 124 c 0
 597 124 607 123 612 117 c 0
 615 114 615 113 615 106 c 0
 612 73 580 44 526 24 c 0
 472 4 402 -6 326 -5 c 0
 285 -4 258 1 228 12 c 0
 179 31 145 64 120 113 c 0
 102 149 90 189 85 239 c 0
 82 275 83 333 87 370 c 0
 96 451 127 518 174 556 c 0
 215 589 276 611 338 617 c 0
 344 618 351 618 353 618 c 0
EndSplineSet
EndChar

StartChar: d
Encoding: 100 100 66
Width: 703
Flags: HW
LayerCount: 2
Fore
SplineSet
565 818 m 0
 569 818 578 819 586 819 c 0
 600 818 608 816 612 812 c 2
 615 809 l 1
 615 419 l 2
 615 39 615 28 613 25 c 0
 609 19 596 11 580 6 c 0
 564 2 553 1 537 1 c 0
 518 0 510 2 505 7 c 0
 502 10 502 10 502 19 c 0
 502 25 502 28 501 28 c 0
 466 13 426 2 380 -3 c 0
 356 -5 306 -5 290 -3 c 0
 239 5 199 22 168 52 c 0
 131 86 105 142 95 209 c 0
 88 254 87 323 93 371 c 0
 101 443 125 502 162 540 c 0
 204 584 271 612 352 618 c 0
 368 619 404 619 423 617 c 0
 448 615 483 608 497 602 c 2
 502 600 l 1
 502 696 l 1
 502 792 l 1
 506 796 l 2
 515 806 537 814 565 818 c 0
353 577 m 0
 326 579 317 577 303 570 c 0
 276 557 253 532 237 497 c 0
 220 462 209 422 205 370 c 0
 203 351 203 280 205 262 c 0
 210 207 220 169 238 133 c 0
 261 89 293 59 335 45 c 0
 352 39 359 37 382 38 c 0
 411 38 423 41 442 53 c 0
 475 75 496 114 501 162 c 0
 502 168 502 218 502 299 c 0
 502 437 502 440 497 463 c 0
 481 530 430 570 353 577 c 0
EndSplineSet
EndChar

StartChar: e
Encoding: 101 101 67
Width: 681
Flags: HW
LayerCount: 2
Fore
SplineSet
338 618 m 0
 354 619 390 618 406 616 c 0
 432 612 451 606 474 594 c 0
 509 577 535 550 555 512 c 0
 578 469 589 421 593 356 c 0
 595 327 594 314 592 310 c 0
 587 302 567 293 541 288 c 0
 532 287 521 287 377 287 c 0
 231 287 222 287 217 288 c 0
 210 290 205 295 205 298 c 0
 205 304 223 316 241 321 c 0
 264 328 258 327 374 328 c 2
 479 328 l 1
 479 342 l 2
 476 412 458 471 427 514 c 0
 420 525 402 543 391 551 c 0
 367 567 335 579 315 578 c 0
 298 577 267 555 250 530 c 0
 221 491 205 441 199 370 c 0
 197 347 197 278 199 255 c 0
 205 192 219 147 245 109 c 0
 269 73 300 50 340 40 c 0
 350 38 351 38 379 38 c 0
 429 38 450 43 465 58 c 0
 473 66 478 76 479 86 c 0
 481 98 481 98 485 102 c 0
 496 113 526 123 555 124 c 0
 575 125 588 122 593 115 c 0
 596 110 592 92 584 78 c 0
 575 63 554 45 534 35 c 0
 481 8 399 -7 315 -5 c 0
 267 -4 239 3 204 20 c 0
 167 39 140 67 120 108 c 0
 102 145 91 184 85 238 c 0
 83 261 83 330 85 353 c 0
 91 426 109 481 141 524 c 0
 180 576 251 610 338 618 c 0
EndSplineSet
EndChar

StartChar: f
Encoding: 102 102 68
Width: 596
Flags: HW
LayerCount: 2
Fore
SplineSet
326 823 m 0
 343 824 390 824 410 822 c 0
 447 818 475 810 500 798 c 0
 538 779 561 751 571 713 c 0
 573 702 576 682 575 678 c 0
 571 665 536 651 501 649 c 0
 481 648 467 651 464 657 c 0
 463 659 462 665 462 671 c 0
 460 690 453 710 443 727 c 0
 419 762 372 782 314 782 c 0
 306 782 305 782 298 779 c 0
 272 766 250 743 233 707 c 0
 217 670 207 626 204 570 c 0
 203 558 203 460 203 297 c 2
 203 42 l 1
 252 42 l 2
 291 42 302 42 307 41 c 0
 315 39 321 36 323 33 c 0
 324 30 324 30 323 26 c 0
 318 18 299 9 272 3 c 0
 263 1 261 1 127 0 c 0
 9 0 -10 0 -16 1 c 0
 -24 3 -30 6 -32 9 c 0
 -33 12 -33 12 -31 16 c 0
 -27 24 -7 34 20 40 c 0
 26 41 36 41 59 42 c 2
 89 42 l 1
 89 300 l 2
 90 573 90 564 94 600 c 0
 104 667 129 722 165 757 c 0
 203 793 259 816 326 823 c 0
273 451 m 0
 277 451 326 452 382 452 c 0
 476 451 483 451 488 450 c 0
 494 448 500 442 500 439 c 0
 500 433 482 422 464 417 c 0
 441 410 446 411 332 411 c 0
 235 411 227 411 222 412 c 0
 215 414 210 419 210 422 c 0
 210 425 218 433 226 437 c 0
 238 443 255 449 273 451 c 0
EndSplineSet
EndChar

StartChar: g
Encoding: 103 103 69
Width: 703
Flags: HW
LayerCount: 2
Fore
SplineSet
353 618 m 0
 355 619 368 620 381 620 c 0
 431 620 476 615 511 607 c 2
 524 603 l 1
 534 606 l 2
 566 616 603 616 612 607 c 2
 615 604 l 1
 615 259 l 2
 615 -119 615 -91 609 -106 c 0
 598 -134 573 -157 537 -173 c 0
 496 -191 451 -202 394 -208 c 0
 370 -210 293 -210 269 -208 c 0
 198 -202 149 -186 119 -159 c 0
 110 -150 103 -141 97 -129 c 0
 92 -119 90 -111 89 -100 c 2
 89 -93 l 1
 93 -89 l 2
 101 -80 119 -73 143 -68 c 0
 157 -66 182 -66 190 -68 c 0
 198 -71 203 -74 203 -80 c 0
 203 -93 210 -110 219 -122 c 0
 237 -145 274 -160 322 -166 c 0
 333 -167 344 -167 376 -167 c 0
 417 -167 428 -167 445 -163 c 0
 468 -157 487 -142 496 -122 c 0
 502 -111 502 -108 502 -43 c 0
 502 12 502 15 500 15 c 0
 450 1 389 -6 326 -5 c 0
 285 -4 258 1 228 12 c 0
 179 31 145 64 120 113 c 0
 102 149 90 189 85 239 c 0
 82 275 83 333 87 370 c 0
 96 451 127 518 174 556 c 0
 215 589 276 611 338 617 c 0
 344 618 351 618 353 618 c 0
369 577 m 0
 360 578 344 578 336 578 c 0
 317 578 311 576 297 568 c 0
 246 541 210 475 201 386 c 0
 195 337 196 271 203 227 c 0
 212 172 230 127 259 93 c 0
 282 66 315 47 351 40 c 0
 361 37 390 37 415 38 c 0
 445 40 460 43 474 50 c 0
 487 57 499 72 501 85 c 0
 502 89 502 163 502 302 c 2
 502 514 l 1
 499 519 l 2
 498 522 495 528 492 532 c 0
 473 557 430 573 369 577 c 0
EndSplineSet
EndChar

StartChar: h
Encoding: 104 104 70
Width: 703
Flags: HW
LayerCount: 2
Fore
SplineSet
153 818 m 0
 157 818 165 819 173 819 c 0
 187 818 196 816 200 812 c 2
 203 809 l 1
 203 705 l 2
 203 605 203 599 205 599 c 0
 220 604 247 610 271 613 c 0
 301 617 324 618 365 618 c 0
 409 618 419 617 444 611 c 0
 494 599 533 573 560 536 c 0
 592 491 610 432 614 357 c 0
 615 347 615 278 615 184 c 0
 615 6 616 25 606 18 c 0
 590 7 564 1 537 1 c 0
 519 0 511 2 505 6 c 2
 503 9 l 1
 502 177 l 2
 501 352 501 351 497 385 c 0
 485 471 447 531 391 560 c 0
 368 572 353 577 328 578 c 0
 296 579 262 575 246 570 c 0
 224 564 208 548 204 530 c 0
 203 526 203 454 203 276 c 0
 203 35 203 28 201 25 c 0
 197 19 183 11 167 6 c 0
 151 2 140 1 124 1 c 0
 105 0 97 2 92 7 c 2
 89 10 l 1
 89 400 l 1
 89 792 l 1
 93 796 l 2
 102 806 125 814 153 818 c 0
EndSplineSet
EndChar

StartChar: i
Encoding: 105 105 71
Width: 379
Flags: HW
LayerCount: 2
Fore
SplineSet
200 737 m 0
 214 739 232 737 240 734 c 0
 248 730 249 724 241 717 c 0
 221 698 145 687 134 703 c 0
 132 707 133 712 139 717 c 0
 148 726 175 735 200 737 c 0
75 613 m 0
 85 614 342 614 350 613 c 0
 363 611 371 605 367 599 c 0
 363 590 344 581 319 575 c 0
 308 573 304 573 276 572 c 2
 247 572 l 1
 247 307 l 1
 247 42 l 1
 295 42 l 2
 324 42 346 42 350 41 c 0
 363 39 371 33 367 27 c 0
 363 18 345 9 319 3 c 2
 307 1 l 1
 172 0 l 2
 81 0 35 0 31 1 c 0
 17 3 9 9 13 15 c 0
 17 24 35 33 60 39 c 0
 71 41 75 41 103 42 c 2
 133 42 l 1
 133 307 l 1
 133 572 l 1
 85 572 l 2
 56 572 34 572 30 573 c 0
 17 575 9 582 13 588 c 0
 18 599 45 609 75 613 c 0
EndSplineSet
EndChar

StartChar: j
Encoding: 106 106 72
Width: 493
Flags: HW
LayerCount: 2
Fore
SplineSet
358 737 m 0
 366 738 381 738 387 737 c 0
 416 732 410 717 376 705 c 0
 343 693 300 692 292 703 c 0
 288 711 298 721 321 729 c 0
 331 733 348 736 358 737 c 0
237 613 m 0
 239 614 299 614 372 614 c 0
 484 614 505 614 510 613 c 0
 518 611 523 608 525 605 c 0
 526 602 526 602 525 598 c 0
 520 590 500 580 473 574 c 0
 467 573 457 573 435 572 c 2
 406 572 l 1
 406 321 l 2
 406 167 405 60 404 48 c 0
 401 -19 391 -66 368 -110 c 0
 350 -147 320 -173 281 -189 c 0
 230 -211 167 -216 124 -202 c 0
 88 -191 59 -166 41 -131 c 0
 14 -84 0 -16 0 66 c 2
 0 80 l 1
 4 85 l 2
 9 90 24 97 36 100 c 0
 52 105 63 106 80 106 c 0
 98 107 106 105 111 100 c 2
 114 97 l 1
 114 83 l 2
 114 50 117 12 122 -15 c 0
 131 -72 151 -117 179 -143 c 0
 188 -150 203 -160 211 -164 c 2
 218 -166 l 1
 223 -162 l 2
 256 -137 281 -77 288 -3 c 0
 292 29 292 53 292 312 c 2
 292 572 l 1
 243 572 l 2
 203 572 191 572 186 573 c 0
 178 575 173 579 171 582 c 0
 170 585 170 585 172 589 c 0
 177 599 208 611 237 613 c 0
EndSplineSet
EndChar

StartChar: k
Encoding: 107 107 73
Width: 659
Flags: HW
LayerCount: 2
Fore
SplineSet
153 818 m 0
 157 818 165 819 173 819 c 0
 187 818 195 816 200 813 c 2
 203 810 l 1
 203 599 l 1
 204 388 l 1
 358 503 l 2
 444 569 515 620 519 622 c 0
 527 626 539 630 551 632 c 0
 559 634 565 634 581 634 c 0
 603 635 608 633 612 628 c 0
 616 624 616 622 613 618 c 0
 611 616 557 574 470 511 c 0
 393 453 330 406 330 406 c 1
 330 406 391 324 467 226 c 0
 631 12 615 32 615 30 c 0
 615 26 607 18 598 13 c 0
 580 5 560 1 536 1 c 0
 517 0 510 2 504 8 c 0
 502 10 444 86 374 177 c 0
 304 268 247 343 247 343 c 2
 246 343 235 336 224 327 c 2
 203 311 l 1
 203 170 l 2
 203 8 204 25 194 18 c 0
 178 7 151 1 124 1 c 0
 105 0 97 2 92 7 c 2
 89 10 l 1
 89 400 l 1
 89 792 l 1
 93 796 l 2
 102 806 125 814 153 818 c 0
EndSplineSet
EndChar

StartChar: l
Encoding: 108 108 74
Width: 379
Flags: HW
LayerCount: 2
Fore
SplineSet
197 818 m 0
 201 818 209 819 217 819 c 0
 231 818 240 816 244 812 c 2
 247 809 l 1
 247 419 l 2
 247 39 247 28 245 25 c 0
 241 19 227 11 211 6 c 0
 195 2 184 1 168 1 c 0
 149 0 141 2 136 7 c 2
 133 10 l 1
 133 400 l 1
 133 792 l 1
 137 796 l 2
 146 806 169 814 197 818 c 0
EndSplineSet
EndChar

StartChar: m
Encoding: 109 109 75
Width: 987
Flags: HW
LayerCount: 2
Fore
SplineSet
313 618 m 0
 328 619 366 618 379 617 c 0
 427 609 468 586 495 550 c 2
 501 542 l 1
 509 551 l 2
 545 587 596 610 659 617 c 0
 674 619 713 619 726 617 c 0
 768 610 802 594 829 565 c 0
 861 532 884 478 893 415 c 0
 898 377 898 380 899 198 c 0
 899 33 899 28 897 25 c 0
 893 19 879 11 863 6 c 0
 847 2 836 1 820 1 c 0
 801 0 793 2 788 7 c 2
 785 10 l 1
 785 180 l 2
 784 362 784 359 779 397 c 0
 772 448 756 492 732 524 c 0
 714 550 681 572 653 577 c 0
 648 578 647 577 642 575 c 0
 632 569 617 558 608 547 c 0
 582 515 564 467 556 411 c 0
 552 375 552 376 551 197 c 0
 550 6 551 24 542 18 c 0
 526 7 499 1 472 1 c 0
 453 0 445 2 440 7 c 2
 437 10 l 1
 437 180 l 2
 436 362 436 359 431 397 c 0
 424 448 408 492 384 524 c 0
 368 547 339 567 314 574 c 0
 307 576 303 577 293 577 c 0
 277 577 272 575 260 567 c 0
 228 547 209 507 204 456 c 0
 203 448 203 373 203 237 c 0
 203 35 203 28 201 25 c 0
 197 19 183 11 167 6 c 0
 151 2 140 1 124 1 c 0
 105 0 97 2 92 7 c 2
 89 10 l 1
 89 298 l 1
 89 587 l 1
 93 592 l 2
 98 597 113 604 125 607 c 0
 141 612 152 613 169 613 c 0
 194 614 203 610 203 599 c 0
 203 596 203 594 204 594 c 2
 204 594 208 595 211 597 c 0
 237 607 277 615 313 618 c 0
EndSplineSet
EndChar

StartChar: n
Encoding: 110 110 76
Width: 703
Flags: HW
LayerCount: 2
Fore
SplineSet
340 618 m 0
 360 619 403 618 419 616 c 0
 480 607 529 579 560 536 c 0
 592 491 610 432 614 357 c 0
 615 347 615 278 615 184 c 0
 615 6 616 25 606 18 c 0
 590 7 564 1 537 1 c 0
 519 0 511 2 505 6 c 2
 503 9 l 1
 502 177 l 2
 501 352 501 351 497 385 c 0
 485 471 447 531 391 560 c 0
 363 574 338 580 307 577 c 0
 287 575 274 570 259 560 c 0
 228 538 209 502 204 455 c 0
 203 448 203 376 203 237 c 0
 203 35 203 28 201 25 c 0
 197 19 183 11 167 6 c 0
 151 2 140 1 124 1 c 0
 105 0 97 2 92 7 c 2
 89 10 l 1
 89 298 l 1
 89 587 l 1
 93 592 l 2
 98 597 113 604 125 607 c 0
 141 612 152 613 169 613 c 0
 187 614 195 612 200 607 c 0
 203 604 203 604 203 596 c 2
 203 587 l 1
 211 591 l 2
 245 604 291 614 340 618 c 0
EndSplineSet
EndChar

StartChar: o
Encoding: 111 111 77
Width: 780
Flags: HW
LayerCount: 2
Fore
SplineSet
379 618 m 0
 396 619 429 619 446 618 c 0
 511 614 563 598 606 569 c 0
 682 519 722 426 719 303 c 0
 717 223 697 162 660 112 c 0
 645 92 619 67 595 52 c 0
 520 6 405 -14 304 -1 c 0
 252 6 211 20 174 45 c 0
 98 95 58 188 61 311 c 0
 63 391 83 453 120 503 c 0
 135 523 161 547 185 562 c 0
 235 593 304 613 379 618 c 0
403 575 m 0
 390 576 354 578 343 577 c 0
 310 573 284 562 258 540 c 0
 204 495 175 416 175 316 c 0
 175 253 186 199 208 157 c 0
 215 143 230 121 240 110 c 0
 273 72 320 48 378 39 c 0
 393 37 435 37 449 39 c 0
 460 41 479 47 488 52 c 0
 549 84 591 150 601 240 c 0
 610 311 604 383 582 436 c 0
 569 470 547 500 523 522 c 0
 491 550 450 568 403 575 c 0
EndSplineSet
EndChar

StartChar: p
Encoding: 112 112 78
Width: 681
Flags: HW
LayerCount: 2
Fore
SplineSet
337 618 m 0
 350 619 380 619 392 618 c 0
 454 613 508 590 543 552 c 0
 578 515 601 462 610 396 c 0
 614 368 614 355 614 316 c 0
 614 276 614 262 610 236 c 0
 599 154 566 91 516 54 c 0
 450 6 349 -15 254 0 c 0
 240 2 217 7 207 10 c 2
 203 12 l 1
 203 -82 l 2
 203 -190 204 -180 194 -186 c 0
 178 -197 151 -204 124 -204 c 0
 105 -205 97 -203 92 -198 c 2
 89 -195 l 1
 89 196 l 1
 89 587 l 1
 93 592 l 2
 98 597 113 604 125 607 c 0
 141 612 152 613 169 613 c 0
 187 614 195 612 200 607 c 0
 203 604 203 604 203 597 c 2
 203 589 l 1
 213 593 l 2
 246 606 293 616 337 618 c 0
347 574 m 0
 337 576 330 577 318 578 c 0
 292 578 281 575 266 566 c 0
 234 548 215 516 206 469 c 0
 204 458 204 456 203 325 c 0
 203 185 203 176 207 156 c 0
 221 87 270 45 343 38 c 0
 368 36 380 37 395 44 c 0
 426 58 454 90 473 131 c 0
 493 177 503 237 502 312 c 0
 501 342 500 355 497 379 c 0
 490 428 477 466 454 500 c 0
 427 539 391 564 347 574 c 0
EndSplineSet
EndChar

StartChar: q
Encoding: 113 113 79
Width: 681
Flags: HW
LayerCount: 2
Fore
SplineSet
332 617 m 0
 350 619 395 619 414 617 c 0
 440 614 464 608 482 601 c 2
 492 598 l 1
 500 601 l 2
 517 609 537 613 560 613 c 0
 578 614 586 612 591 607 c 2
 594 604 l 1
 594 214 l 2
 594 -166 594 -177 592 -180 c 0
 588 -186 574 -194 558 -199 c 0
 542 -203 531 -204 515 -204 c 0
 496 -205 488 -203 483 -198 c 2
 480 -195 l 1
 480 -85 l 1
 480 26 l 1
 469 20 l 2
 439 9 402 1 361 -3 c 0
 354 -4 336 -4 319 -4 c 0
 284 -4 270 -3 242 4 c 0
 195 16 153 42 127 77 c 0
 114 94 97 122 90 144 c 0
 73 190 66 245 67 312 c 0
 68 362 73 397 83 433 c 0
 98 484 126 528 161 556 c 0
 203 590 264 611 332 617 c 0
343 575 m 0
 328 577 309 577 302 575 c 0
 287 572 265 559 250 544 c 0
 223 517 204 479 193 434 c 0
 176 362 177 256 195 188 c 0
 208 143 231 104 259 79 c 0
 282 60 308 46 338 40 c 0
 347 38 353 38 369 38 c 0
 382 38 389 38 395 39 c 0
 422 45 449 69 464 101 c 0
 469 111 474 129 477 145 c 2
 479 159 l 1
 480 291 l 2
 480 430 480 438 476 460 c 0
 462 527 415 567 343 575 c 0
EndSplineSet
EndChar

StartChar: r
Encoding: 114 114 80
Width: 618
Flags: HW
LayerCount: 2
Fore
SplineSet
323 618 m 0
 336 619 403 618 419 617 c 0
 461 613 498 605 524 593 c 0
 552 581 569 561 573 541 c 0
 575 531 574 527 568 522 c 0
 549 505 489 496 467 506 c 0
 462 508 461 510 461 518 c 0
 459 537 442 554 413 564 c 0
 386 573 363 577 319 577 c 0
 291 577 287 576 281 575 c 0
 266 571 249 559 237 546 c 0
 222 528 212 506 206 475 c 0
 204 464 204 463 203 253 c 2
 203 42 l 1
 252 42 l 2
 291 42 302 42 307 41 c 0
 315 39 321 36 323 33 c 0
 324 30 324 30 323 26 c 0
 318 18 299 9 272 3 c 0
 263 1 261 1 127 0 c 0
 9 0 -10 0 -16 1 c 0
 -24 3 -30 6 -32 9 c 0
 -33 12 -33 12 -31 16 c 0
 -27 24 -7 34 20 40 c 0
 26 41 36 41 59 42 c 2
 89 42 l 1
 89 314 l 1
 89 587 l 1
 93 592 l 2
 98 597 113 604 125 607 c 0
 141 612 152 613 169 613 c 0
 187 614 195 612 200 607 c 0
 203 604 203 603 203 598 c 0
 203 592 203 592 205 593 c 0
 237 605 278 614 323 618 c 0
EndSplineSet
EndChar

StartChar: s
Encoding: 115 115 81
Width: 703
Flags: HW
LayerCount: 2
Fore
SplineSet
344 618 m 0
 352 619 428 618 442 617 c 0
 449 616 464 615 474 613 c 0
 541 604 588 583 606 552 c 0
 613 540 617 522 614 516 c 0
 609 508 591 499 566 494 c 0
 552 491 527 490 516 492 c 0
 506 495 503 498 502 507 c 0
 501 516 498 523 492 532 c 0
 476 552 442 568 397 573 c 0
 360 578 299 578 276 573 c 0
 237 564 210 535 200 492 c 0
 198 482 198 477 198 463 c 0
 198 450 198 443 199 438 c 0
 214 379 276 343 390 327 c 0
 436 321 472 312 505 299 c 0
 564 275 600 242 612 199 c 0
 614 190 614 186 614 170 c 0
 614 157 614 149 613 143 c 0
 609 123 598 98 587 83 c 0
 555 41 489 11 404 0 c 0
 361 -6 293 -6 246 -1 c 0
 172 6 118 29 98 62 c 0
 91 74 87 92 90 98 c 0
 95 106 113 116 138 121 c 0
 152 124 177 125 188 123 c 0
 198 120 202 117 203 108 c 0
 204 99 207 91 213 82 c 0
 223 69 239 58 264 50 c 0
 293 41 318 38 370 38 c 0
 411 38 418 38 433 43 c 0
 462 53 486 79 496 112 c 0
 500 127 502 136 501 154 c 0
 501 173 500 182 493 197 c 0
 479 225 451 247 410 263 c 0
 383 274 355 281 312 288 c 0
 260 295 227 303 194 316 c 0
 133 340 98 372 86 417 c 0
 84 426 84 428 84 445 c 0
 84 461 84 465 86 475 c 0
 98 527 134 563 194 589 c 0
 232 604 277 614 325 617 c 0
 333 618 341 618 344 618 c 0
EndSplineSet
EndChar

StartChar: t
Encoding: 116 116 82
Width: 493
Flags: HW
LayerCount: 2
Fore
SplineSet
254 818 m 0
 258 818 266 819 274 819 c 0
 288 818 297 816 301 812 c 2
 304 809 l 1
 304 712 l 1
 304 614 l 1
 369 614 l 2
 427 613 433 613 438 612 c 0
 444 610 450 605 450 602 c 0
 450 596 432 585 414 580 c 0
 395 574 389 573 345 572 c 2
 304 572 l 1
 304 307 l 1
 304 42 l 1
 353 42 l 2
 392 42 404 42 409 41 c 0
 417 39 422 36 424 33 c 0
 425 30 425 30 424 26 c 0
 419 18 401 9 374 3 c 0
 365 1 362 1 228 0 c 0
 110 0 91 0 85 1 c 0
 77 3 72 6 70 9 c 0
 69 12 69 12 71 16 c 0
 75 24 95 34 122 40 c 0
 128 41 138 41 161 42 c 2
 190 42 l 1
 190 307 l 1
 190 572 l 1
 126 572 l 2
 67 573 60 573 55 574 c 0
 49 576 44 582 44 585 c 0
 44 591 62 602 80 607 c 0
 99 613 104 613 148 614 c 2
 190 614 l 1
 190 703 l 1
 190 792 l 1
 195 796 l 2
 204 806 226 814 254 818 c 0
EndSplineSet
EndChar

StartChar: u
Encoding: 117 117 83
Width: 703
Flags: HW
LayerCount: 2
Fore
SplineSet
153 613 m 0
 157 613 165 614 173 614 c 0
 187 613 195 611 200 608 c 2
 203 605 l 1
 203 437 l 2
 204 262 204 263 208 229 c 0
 220 143 257 83 313 54 c 0
 341 40 366 35 398 38 c 0
 417 40 430 44 445 54 c 0
 476 76 496 113 501 160 c 0
 502 167 502 239 502 378 c 2
 502 587 l 1
 506 592 l 2
 511 597 526 604 538 607 c 0
 554 612 565 613 582 613 c 0
 600 614 607 612 612 607 c 2
 615 604 l 1
 615 316 l 2
 615 36 615 28 613 25 c 0
 609 19 596 11 580 6 c 0
 564 2 553 1 537 1 c 0
 518 0 510 2 505 7 c 0
 502 10 502 10 502 18 c 2
 502 28 l 1
 494 24 l 1
 428 -4 322 -13 260 3 c 0
 210 15 171 42 144 80 c 0
 112 124 94 182 90 257 c 0
 89 267 89 336 89 430 c 2
 89 587 l 1
 93 591 l 2
 102 601 125 609 153 613 c 0
EndSplineSet
EndChar

StartChar: v
Encoding: 118 118 84
Width: 659
Flags: HW
LayerCount: 2
Fore
SplineSet
133 613 m 0
 135 614 143 614 151 613 c 0
 165 613 172 611 176 608 c 0
 179 606 190 568 256 342 c 0
 298 198 333 79 333 80 c 2
 333 80 366 195 407 335 c 0
 481 587 480 589 484 592 c 0
 491 600 512 608 534 612 c 0
 548 614 573 614 581 612 c 0
 588 610 593 605 593 602 c 0
 593 601 438 69 428 35 c 0
 425 24 421 19 410 13 c 0
 400 9 387 5 373 2 c 0
 366 1 355 1 311 0 c 0
 256 0 248 0 240 4 c 0
 236 6 234 8 233 11 c 0
 232 14 194 143 148 300 c 0
 90 501 67 585 68 587 c 0
 70 597 101 610 133 613 c 0
EndSplineSet
EndChar

StartChar: w
Encoding: 119 119 85
Width: 1024
Flags: HW
LayerCount: 2
Fore
SplineSet
93 613 m 0
 99 614 123 613 128 612 c 0
 138 608 130 634 219 341 c 0
 263 197 300 78 300 78 c 1
 300 78 334 188 375 322 c 0
 467 624 456 589 461 593 c 0
 481 610 539 620 562 610 c 0
 564 609 566 607 567 606 c 0
 567 605 604 486 648 342 c 0
 692 198 728 79 729 78 c 2
 729 78 764 192 807 331 c 0
 849 470 885 586 886 588 c 0
 892 600 925 612 958 614 c 0
 978 615 993 611 997 605 c 0
 998 602 994 587 910 313 c 2
 822 26 l 1
 818 22 l 2
 810 15 792 7 772 3 c 0
 761 1 759 1 705 1 c 0
 654 1 647 1 642 2 c 0
 631 6 637 -13 571 204 c 0
 538 310 511 399 511 402 c 0
 509 406 509 406 453 219 c 0
 421 116 394 29 393 27 c 0
 388 18 369 8 341 2 c 0
 332 1 325 1 275 1 c 0
 224 1 218 1 213 2 c 0
 210 3 206 5 204 7 c 0
 201 9 193 37 114 297 c 0
 31 568 26 585 27 588 c 0
 33 599 57 608 93 613 c 0
EndSplineSet
EndChar

StartChar: x
Encoding: 120 120 86
Width: 659
Flags: HW
LayerCount: 2
Fore
SplineSet
145 613 m 0
 161 615 177 613 184 610 c 0
 189 608 194 601 262 504 c 0
 302 447 336 399 336 399 c 1
 336 399 365 442 402 494 c 0
 438 545 469 589 471 592 c 0
 478 599 494 606 517 611 c 0
 533 614 559 615 568 612 c 0
 576 609 581 606 581 602 c 0
 581 599 550 555 484 462 c 2
 388 325 l 1
 489 179 l 2
 544 100 592 34 592 32 c 0
 595 27 587 19 575 13 c 0
 547 1 504 -4 486 4 c 0
 483 6 477 15 403 119 c 0
 359 181 324 232 324 232 c 1
 324 232 291 185 251 128 c 0
 210 71 176 22 174 20 c 0
 156 4 97 -6 74 4 c 0
 69 6 67 10 67 13 c 0
 68 15 114 81 169 162 c 0
 225 242 271 307 271 307 c 1
 271 307 228 369 175 445 c 0
 101 550 79 583 79 585 c 0
 79 592 92 600 110 606 c 0
 118 609 136 613 145 613 c 0
EndSplineSet
EndChar

StartChar: y
Encoding: 121 121 87
Width: 659
Flags: HW
LayerCount: 2
Fore
SplineSet
133 613 m 0
 135 614 143 614 151 613 c 0
 164 613 172 612 176 608 c 0
 178 607 195 562 256 393 c 0
 298 276 333 180 333 180 c 1
 333 180 367 272 407 384 c 0
 491 615 482 593 498 601 c 0
 515 609 535 613 559 613 c 0
 571 613 577 613 581 612 c 0
 588 610 593 605 593 602 c 0
 593 601 530 425 453 211 c 0
 316 -168 311 -179 307 -183 c 0
 288 -203 209 -213 200 -196 c 0
 199 -193 201 -188 236 -90 c 2
 272 12 l 1
 170 298 l 2
 91 516 67 585 67 587 c 0
 70 597 101 610 133 613 c 0
EndSplineSet
EndChar

StartChar: z
Encoding: 122 122 88
Width: 659
Flags: HW
LayerCount: 2
Fore
SplineSet
133 613 m 0
 135 614 234 614 353 614 c 0
 582 614 578 614 587 610 c 0
 591 607 593 604 593 601 c 0
 592 599 502 474 391 321 c 2
 190 43 l 1
 383 42 l 2
 567 42 577 41 582 40 c 0
 588 38 593 33 593 30 c 0
 593 21 573 9 542 3 c 2
 532 1 l 1
 312 0 l 2
 153 0 90 0 85 1 c 0
 73 3 66 8 67 13 c 0
 68 15 157 141 268 294 c 2
 469 572 l 1
 276 572 l 2
 92 572 83 573 78 574 c 0
 72 576 67 582 67 585 c 0
 67 590 75 597 85 602 c 0
 97 607 119 612 133 613 c 0
EndSplineSet
EndChar

StartChar: braceleft
Encoding: 123 123 89
Width: 371
Flags: HW
LayerCount: 2
Fore
SplineSet
283 859 m 0
 293 860 305 859 313 857 c 0
 320 856 324 854 327 850 c 0
 331 844 321 834 297 825 c 0
 286 822 278 816 271 806 c 0
 265 797 261 788 256 773 c 0
 245 736 241 709 240 633 c 0
 239 571 236 550 231 522 c 0
 226 498 218 473 211 460 c 0
 203 446 188 430 175 421 c 2
 169 418 l 1
 177 413 l 2
 202 397 216 374 226 335 c 0
 236 298 239 276 240 205 c 0
 241 152 242 137 245 113 c 0
 249 85 257 55 265 40 c 0
 276 20 292 5 315 -1 c 0
 320 -2 324 -4 325 -6 c 0
 329 -10 329 -11 326 -15 c 0
 323 -19 318 -23 308 -28 c 0
 284 -39 248 -43 226 -38 c 0
 192 -30 167 -11 153 18 c 0
 144 36 134 68 131 98 c 0
 128 121 127 135 126 186 c 0
 125 238 124 254 121 278 c 0
 117 306 108 335 100 350 c 0
 90 369 74 384 52 390 c 0
 44 393 39 397 39 400 c 0
 39 402 43 409 46 411 c 0
 50 415 66 421 72 423 c 0
 81 426 92 437 99 450 c 0
 107 464 117 496 121 527 c 0
 124 550 125 564 126 616 c 0
 127 669 128 689 132 714 c 0
 136 739 145 765 153 781 c 0
 165 808 188 830 221 843 c 0
 240 851 265 857 283 859 c 0
EndSplineSet
EndChar

StartChar: bar
Encoding: 124 124 90
Width: 412
Flags: HW
LayerCount: 2
Fore
SplineSet
213 818 m 0
 217 818 225 819 233 819 c 0
 247 818 256 816 260 812 c 2
 263 809 l 1
 263 419 l 2
 263 39 263 28 261 25 c 0
 257 19 243 11 227 6 c 0
 211 2 200 1 184 1 c 0
 165 0 158 2 153 7 c 2
 150 10 l 1
 150 400 l 1
 150 792 l 1
 154 796 l 2
 163 806 185 814 213 818 c 0
EndSplineSet
EndChar

StartChar: braceright
Encoding: 125 125 91
Width: 371
Flags: HW
LayerCount: 2
Fore
SplineSet
102 859 m 0
 141 863 181 845 204 813 c 0
 216 797 227 763 233 729 c 0
 237 705 239 685 240 633 c 0
 241 581 242 561 246 537 c 0
 252 502 263 472 275 456 c 0
 285 444 301 433 317 429 c 0
 333 425 337 418 327 409 c 0
 322 406 308 398 298 395 c 0
 288 392 280 387 273 377 c 0
 258 357 246 315 242 266 c 0
 241 259 241 231 240 203 c 0
 239 141 236 119 229 88 c 0
 224 61 212 32 202 19 c 0
 183 -7 151 -25 109 -35 c 0
 92 -39 81 -40 68 -40 c 0
 50 -40 39 -37 35 -31 c 0
 33 -28 35 -23 40 -19 c 0
 44 -15 60 -8 69 -5 c 0
 77 -3 84 1 91 10 c 0
 100 21 108 38 114 63 c 0
 123 96 125 120 126 186 c 0
 127 246 129 266 134 294 c 0
 138 316 148 342 156 356 c 0
 164 371 178 386 193 396 c 2
 200 401 l 1
 190 408 l 2
 178 416 164 430 158 441 c 0
 149 456 139 482 134 509 c 0
 128 538 126 569 126 615 c 0
 126 676 121 717 111 752 c 0
 98 791 80 810 49 819 c 0
 41 821 39 823 37 825 c 0
 34 829 34 830 35 834 c 0
 41 845 71 856 102 859 c 0
EndSplineSet
EndChar

StartChar: asciitilde
Encoding: 126 126 92
Width: 817
Flags: HW
LayerCount: 2
Fore
SplineSet
249 420 m 0
 256 421 319 420 329 419 c 0
 404 411 448 385 462 341 c 0
 465 331 465 330 466 316 c 0
 468 293 473 279 487 265 c 0
 506 246 540 236 586 236 c 0
 619 236 628 239 640 251 c 0
 651 261 657 276 659 292 c 0
 659 301 662 304 666 308 c 0
 671 312 686 320 697 322 c 0
 731 331 767 329 772 319 c 0
 776 312 769 287 760 272 c 0
 754 262 738 246 728 239 c 0
 694 217 649 202 593 196 c 0
 573 194 526 193 506 195 c 0
 421 201 371 226 356 273 c 0
 353 283 353 284 352 299 c 0
 350 321 345 335 331 349 c 0
 321 360 305 368 286 373 c 0
 272 377 264 378 240 379 c 0
 202 380 190 377 177 364 c 0
 166 353 161 341 158 323 c 2
 157 312 l 1
 152 307 l 2
 145 300 129 294 109 290 c 0
 101 288 95 288 80 288 c 0
 57 287 51 289 46 294 c 0
 44 297 44 298 44 305 c 0
 45 316 50 332 57 342 c 0
 63 353 79 369 91 377 c 0
 124 399 177 415 231 419 c 0
 238 420 247 420 249 420 c 0
EndSplineSet
EndChar

StartChar: Adieresis
Encoding: 196 196 93
Width: 780
Flags: HW
LayerCount: 2
Fore
SplineSet
309 909 m 0
 320 910 344 909 351 908 c 0
 362 905 369 900 368 894 c 0
 366 889 357 883 346 877 c 0
 324 867 299 861 271 861 c 0
 247 861 237 863 232 870 c 0
 229 874 231 878 237 884 c 0
 248 895 277 905 309 909 c 0
492 909 m 0
 503 910 527 909 534 908 c 0
 545 905 551 900 550 894 c 0
 548 889 539 883 528 877 c 0
 506 867 482 861 454 861 c 0
 430 861 420 863 415 870 c 0
 412 874 413 878 419 884 c 0
 430 895 460 905 492 909 c 0
360 818 m 0
 367 819 463 819 469 818 c 0
 479 816 484 813 486 808 c 0
 487 805 540 630 601 417 c 0
 681 144 714 30 713 28 c 0
 711 19 690 8 663 3 c 0
 648 0 620 0 612 2 c 0
 601 6 606 -9 555 168 c 2
 509 327 l 1
 388 327 l 1
 267 327 l 1
 223 176 l 2
 179 28 179 26 175 23 c 0
 168 15 148 6 126 2 c 0
 112 0 87 0 79 2 c 0
 72 4 67 9 67 12 c 0
 67 13 281 748 292 784 c 0
 295 795 299 800 310 806 c 0
 323 812 340 816 360 818 c 0
441 555 m 0
 411 656 388 740 388 740 c 2
 387 740 280 371 280 370 c 0
 280 369 328 369 388 369 c 0
 461 369 496 369 496 370 c 0
 496 371 471 454 441 555 c 0
EndSplineSet
EndChar

StartChar: Aring
Encoding: 197 197 94
Width: 780
Flags: HW
LayerCount: 2
Fore
SplineSet
384 1033 m 0
 396 1034 421 1034 431 1032 c 0
 444 1029 458 1025 466 1020 c 0
 480 1012 492 997 498 980 c 0
 505 961 505 933 498 913 c 0
 494 900 488 892 479 883 c 0
 457 861 421 850 377 850 c 0
 351 850 329 854 314 863 c 0
 300 871 289 886 283 903 c 0
 276 922 276 949 283 971 c 0
 294 1007 328 1027 384 1033 c 0
393 1009 m 0
 389 1010 382 1011 378 1011 c 0
 371 1011 370 1011 365 1007 c 0
 355 1001 347 988 343 973 c 0
 341 966 341 961 341 947 c 0
 341 927 342 918 349 905 c 0
 359 885 378 872 402 872 c 0
 409 872 411 873 416 877 c 0
 426 883 433 895 437 911 c 0
 439 917 439 922 439 936 c 0
 439 956 438 965 431 978 c 0
 424 994 411 1005 393 1009 c 0
360 818 m 0
 367 819 463 819 469 818 c 0
 479 816 484 813 486 808 c 0
 487 805 540 630 601 417 c 0
 681 144 714 30 713 28 c 0
 711 19 690 8 663 3 c 0
 648 0 620 0 612 2 c 0
 601 6 606 -9 555 168 c 2
 509 327 l 1
 388 327 l 1
 267 327 l 1
 223 176 l 2
 179 28 179 26 175 23 c 0
 168 15 148 6 126 2 c 0
 112 0 87 0 79 2 c 0
 72 4 67 9 67 12 c 0
 67 13 281 748 292 784 c 0
 295 795 299 800 310 806 c 0
 323 812 340 816 360 818 c 0
441 555 m 0
 411 656 388 740 388 740 c 2
 387 740 280 371 280 370 c 0
 280 369 328 369 388 369 c 0
 461 369 496 369 496 370 c 0
 496 371 471 454 441 555 c 0
EndSplineSet
EndChar

StartChar: AE
Encoding: 198 198 95
Width: 942
Flags: HW
LayerCount: 2
Fore
SplineSet
441 818 m 0
 442 819 535 819 648 819 c 0
 864 819 860 819 869 815 c 0
 871 814 873 812 874 810 c 0
 880 801 859 787 824 780 c 0
 815 778 814 778 672 777 c 2
 528 777 l 1
 528 604 l 1
 528 431 l 1
 670 431 l 2
 761 431 813 431 817 430 c 0
 825 429 833 425 835 422 c 0
 836 419 836 419 835 416 c 0
 830 407 809 397 781 391 c 0
 773 390 762 390 650 389 c 2
 528 389 l 1
 528 215 l 1
 528 42 l 1
 690 42 l 2
 826 42 854 42 859 41 c 0
 867 39 871 37 874 33 c 0
 880 24 858 10 824 3 c 2
 813 1 l 1
 623 1 l 2
 445 1 432 1 427 2 c 0
 424 3 420 5 418 7 c 2
 415 9 l 1
 415 168 l 1
 415 327 l 1
 356 327 l 1
 298 327 l 1
 238 176 l 2
 188 47 178 26 175 22 c 0
 168 15 148 6 126 2 c 0
 112 0 87 0 79 2 c 0
 73 4 67 9 67 11 c 0
 67 13 373 788 376 793 c 0
 381 804 408 814 441 818 c 0
415 369 m 1
 415 495 l 1
 415 621 l 1
 365 495 l 1
 314 370 l 1
 365 369 l 1
 415 369 l 1
EndSplineSet
EndChar

StartChar: Ccedilla
Encoding: 199 199 96
Width: 744
Flags: HW
LayerCount: 2
Fore
SplineSet
375 823 m 0
 383 824 455 823 472 822 c 0
 587 812 660 776 679 720 c 0
 682 711 684 697 683 693 c 0
 680 684 661 674 634 668 c 0
 620 665 595 664 584 666 c 0
 574 669 569 672 569 679 c 0
 569 696 559 717 544 732 c 0
 511 765 446 782 358 782 c 0
 343 782 342 782 336 779 c 0
 310 769 281 745 262 716 c 0
 226 663 206 589 199 493 c 0
 196 449 197 367 201 325 c 0
 208 243 226 179 257 129 c 0
 284 84 326 52 372 40 c 0
 382 38 383 38 414 38 c 0
 459 38 484 41 507 49 c 0
 543 61 564 85 568 116 c 0
 570 129 570 129 574 133 c 0
 586 144 615 154 644 155 c 0
 664 155 675 153 680 147 c 0
 684 144 684 140 681 127 c 0
 673 87 638 54 580 31 c 0
 550 19 509 8 483 4 c 0
 476 3 475 3 478 -3 c 0
 488 -22 486 -50 474 -69 c 0
 460 -92 429 -107 386 -115 c 0
 367 -118 337 -119 328 -116 c 0
 321 -114 315 -108 315 -105 c 0
 315 -98 333 -88 352 -82 c 0
 363 -79 366 -78 369 -68 c 0
 374 -53 372 -35 365 -23 c 0
 361 -16 358 -13 352 -9 c 0
 348 -6 347 -6 331 -4 c 0
 321 -4 309 -3 306 -2 c 0
 255 6 213 26 179 61 c 0
 160 80 147 98 133 127 c 0
 96 201 81 288 83 420 c 0
 84 474 87 507 93 545 c 0
 103 608 124 665 153 709 c 0
 179 747 217 779 262 797 c 0
 292 810 327 819 360 822 c 0
 366 823 373 823 375 823 c 0
EndSplineSet
EndChar

StartChar: Odieresis
Encoding: 214 214 97
Width: 942
Flags: HW
LayerCount: 2
Fore
SplineSet
390 909 m 0
 401 910 425 909 432 908 c 0
 443 905 450 900 449 894 c 0
 447 889 438 883 427 877 c 0
 405 867 380 861 352 861 c 0
 328 861 318 863 313 870 c 0
 310 874 311 878 317 884 c 0
 328 895 358 905 390 909 c 0
572 909 m 0
 583 910 607 909 614 908 c 0
 625 905 632 900 631 894 c 0
 629 889 620 883 609 877 c 0
 587 867 563 861 535 861 c 0
 511 861 501 863 496 870 c 0
 493 874 494 878 500 884 c 0
 511 895 540 905 572 909 c 0
458 823 m 0
 464 823 480 824 492 824 c 0
 621 825 725 786 790 711 c 0
 838 657 867 583 877 494 c 0
 884 428 880 349 868 293 c 0
 842 173 781 91 682 44 c 0
 566 -10 407 -21 290 18 c 0
 215 44 160 89 121 152 c 0
 80 221 59 310 61 415 c 0
 62 457 67 494 74 526 c 0
 100 646 161 728 260 775 c 0
 317 802 384 818 458 823 c 0
494 779 m 0
 476 781 436 782 419 781 c 0
 393 779 366 772 344 762 c 0
 314 750 283 727 263 703 c 0
 206 637 178 552 175 432 c 0
 173 302 203 201 265 131 c 0
 316 74 395 40 484 37 c 0
 537 36 581 45 621 69 c 0
 643 81 664 99 679 116 c 0
 736 182 764 267 767 388 c 0
 769 517 739 618 677 688 c 0
 633 737 569 769 494 779 c 0
EndSplineSet
EndChar

StartChar: Oslash
Encoding: 216 216 98
Width: 942
Flags: HW
LayerCount: 2
Fore
SplineSet
458 823 m 0
 509 826 569 822 616 811 c 0
 645 804 679 791 701 779 c 2
 710 775 l 1
 719 786 l 2
 723 792 729 799 732 801 c 0
 755 816 810 824 829 815 c 0
 834 812 838 808 836 805 c 0
 836 804 821 786 806 766 c 0
 790 746 776 729 776 728 c 0
 775 727 776 725 781 721 c 0
 833 665 867 589 877 494 c 0
 884 428 880 349 868 293 c 0
 842 173 781 91 682 44 c 0
 567 -10 411 -21 294 17 c 0
 277 23 254 33 241 40 c 2
 232 44 l 1
 223 33 l 2
 219 27 213 20 210 18 c 0
 187 3 132 -5 113 4 c 0
 108 7 104 11 106 14 c 0
 106 15 121 33 136 53 c 0
 152 73 166 90 166 91 c 0
 167 92 166 94 161 98 c 0
 109 154 76 231 66 326 c 0
 59 392 62 470 74 526 c 0
 100 646 161 728 260 775 c 0
 317 802 384 818 458 823 c 0
494 779 m 0
 476 781 436 782 419 781 c 0
 393 779 366 772 344 762 c 0
 314 750 283 727 263 703 c 0
 206 637 178 552 175 432 c 0
 173 332 191 244 228 183 c 0
 232 175 232 175 234 177 c 0
 264 213 655 708 655 708 c 2
 655 710 640 722 628 730 c 0
 590 756 544 772 494 779 c 0
715 636 m 0
 712 641 710 644 710 644 c 2
 709 644 287 112 287 111 c 0
 287 110 303 96 314 89 c 0
 361 57 419 39 484 37 c 0
 537 36 581 45 621 69 c 0
 643 81 664 99 679 116 c 0
 736 182 764 267 767 388 c 0
 769 487 751 575 715 636 c 0
EndSplineSet
EndChar

StartChar: Udieresis
Encoding: 220 220 99
Width: 825
Flags: HW
LayerCount: 2
Fore
SplineSet
332 909 m 0
 343 910 367 909 374 908 c 0
 385 905 391 900 390 894 c 0
 388 889 380 883 369 877 c 0
 347 867 322 861 294 861 c 0
 270 861 260 863 255 870 c 0
 252 874 253 878 259 884 c 0
 270 895 300 905 332 909 c 0
514 909 m 0
 525 910 549 909 556 908 c 0
 567 905 573 900 572 894 c 0
 570 889 562 883 551 877 c 0
 529 867 504 861 476 861 c 0
 452 861 442 863 437 870 c 0
 434 874 435 878 441 884 c 0
 452 895 482 905 514 909 c 0
153 818 m 0
 157 818 165 819 173 819 c 0
 187 818 195 816 200 813 c 2
 203 810 l 1
 203 527 l 2
 204 266 204 244 205 233 c 0
 213 180 229 142 256 110 c 0
 284 78 325 54 372 44 c 0
 407 36 453 35 484 41 c 0
 531 50 573 85 597 133 c 0
 611 161 620 194 623 231 c 0
 624 240 624 338 624 518 c 2
 624 792 l 1
 628 797 l 2
 633 802 647 809 659 812 c 0
 675 817 686 818 703 818 c 0
 721 819 729 817 734 812 c 2
 737 809 l 1
 737 536 l 2
 737 353 737 257 736 248 c 0
 730 179 707 123 665 83 c 0
 616 37 539 7 442 -3 c 0
 419 -5 362 -5 343 -3 c 0
 252 6 188 34 145 84 c 0
 114 121 95 173 90 231 c 0
 89 240 89 341 89 518 c 2
 89 792 l 1
 93 796 l 2
 102 806 125 814 153 818 c 0
EndSplineSet
EndChar

StartChar: agrave
Encoding: 224 224 100
Width: 703
Flags: HW
LayerCount: 2
Fore
SplineSet
282 696 m 0
 287 696 295 697 299 696 c 0
 313 695 470 676 477 674 c 0
 483 673 489 669 489 665 c 0
 489 652 447 635 411 635 c 0
 404 635 370 639 314 646 c 0
 224 657 219 658 215 664 c 0
 208 675 243 692 282 696 c 0
327 618 m 0
 345 619 419 618 434 617 c 0
 508 609 561 586 590 548 c 0
 598 537 606 519 610 507 c 0
 611 502 613 496 614 495 c 0
 615 493 615 459 615 260 c 0
 615 35 615 28 613 25 c 0
 609 19 596 11 580 6 c 0
 564 2 553 1 537 1 c 0
 518 0 510 2 505 7 c 0
 502 10 502 11 502 24 c 2
 502 37 l 1
 489 31 l 2
 428 0 344 -12 267 -1 c 0
 214 6 171 25 142 54 c 0
 130 66 122 77 115 91 c 0
 100 118 91 150 89 188 c 0
 87 255 111 314 156 350 c 0
 211 395 304 419 402 414 c 0
 420 413 436 414 452 420 c 0
 476 427 490 438 497 452 c 0
 501 461 502 469 499 481 c 0
 493 501 483 520 469 535 c 0
 446 557 413 570 371 575 c 0
 357 577 308 578 285 577 c 0
 240 575 218 568 209 557 c 0
 205 552 204 549 203 539 c 0
 201 527 169 513 133 510 c 0
 114 508 95 512 90 517 c 0
 87 522 90 537 97 547 c 0
 114 573 160 594 226 607 c 0
 256 613 289 617 327 618 c 0
502 302 m 2
 502 387 l 1
 502 393 l 1
 488 389 l 2
 462 382 431 376 401 373 c 0
 389 372 359 371 323 372 c 0
 307 372 303 372 296 370 c 0
 284 367 270 359 259 351 c 0
 233 331 215 300 208 260 c 0
 201 228 201 198 208 166 c 0
 222 91 273 46 353 38 c 0
 379 35 395 37 409 45 c 0
 453 67 485 117 496 186 c 0
 501 213 501 219 502 302 c 2
EndSplineSet
EndChar

StartChar: aacute
Encoding: 225 225 101
Width: 703
Flags: HW
LayerCount: 2
Fore
SplineSet
449 696 m 0
 455 697 467 696 474 695 c 0
 496 691 494 679 470 668 c 0
 454 660 445 658 347 646 c 0
 263 636 256 635 244 635 c 0
 228 636 220 638 216 642 c 0
 213 646 213 648 218 653 c 0
 226 662 247 671 272 675 c 0
 281 676 442 696 449 696 c 0
327 618 m 0
 345 619 419 618 434 617 c 0
 508 609 561 586 590 548 c 0
 598 537 606 519 610 507 c 0
 611 502 613 496 614 495 c 0
 615 493 615 459 615 260 c 0
 615 35 615 28 613 25 c 0
 609 19 596 11 580 6 c 0
 564 2 553 1 537 1 c 0
 518 0 510 2 505 7 c 0
 502 10 502 11 502 24 c 2
 502 37 l 1
 489 31 l 2
 428 0 344 -12 267 -1 c 0
 214 6 171 25 142 54 c 0
 130 66 122 77 115 91 c 0
 100 118 91 150 89 188 c 0
 87 255 111 314 156 350 c 0
 211 395 304 419 402 414 c 0
 420 413 436 414 452 420 c 0
 476 427 490 438 497 452 c 0
 501 461 502 469 499 481 c 0
 493 501 483 520 469 535 c 0
 446 557 413 570 371 575 c 0
 357 577 308 578 285 577 c 0
 240 575 218 568 209 557 c 0
 205 552 204 549 203 539 c 0
 201 527 169 513 133 510 c 0
 114 508 95 512 90 517 c 0
 87 522 90 537 97 547 c 0
 114 573 160 594 226 607 c 0
 256 613 289 617 327 618 c 0
502 302 m 2
 502 387 l 1
 502 393 l 1
 488 389 l 2
 462 382 431 376 401 373 c 0
 389 372 359 371 323 372 c 0
 307 372 303 372 296 370 c 0
 284 367 270 359 259 351 c 0
 233 331 215 300 208 260 c 0
 201 228 201 198 208 166 c 0
 222 91 273 46 353 38 c 0
 379 35 395 37 409 45 c 0
 453 67 485 117 496 186 c 0
 501 213 501 219 502 302 c 2
EndSplineSet
EndChar

StartChar: adieresis
Encoding: 228 228 102
Width: 703
Flags: HW
LayerCount: 2
Fore
SplineSet
270 705 m 0
 304 709 331 701 329 689 c 0
 327 685 318 678 309 673 c 0
 270 654 206 650 195 666 c 0
 192 670 193 674 199 679 c 0
 210 690 240 702 270 705 c 0
453 705 m 0
 487 709 513 701 511 689 c 0
 509 685 501 678 492 673 c 0
 453 654 388 650 377 666 c 0
 374 670 375 674 381 679 c 0
 392 690 423 702 453 705 c 0
327 618 m 0
 345 619 419 618 434 617 c 0
 508 609 561 586 590 548 c 0
 598 537 606 519 610 507 c 0
 611 502 613 496 614 495 c 0
 615 493 615 459 615 260 c 0
 615 35 615 28 613 25 c 0
 609 19 596 11 580 6 c 0
 564 2 553 1 537 1 c 0
 518 0 510 2 505 7 c 0
 502 10 502 11 502 24 c 2
 502 37 l 1
 489 31 l 2
 428 0 344 -12 267 -1 c 0
 214 6 171 25 142 54 c 0
 130 66 122 77 115 91 c 0
 100 118 91 150 89 188 c 0
 87 255 111 314 156 350 c 0
 211 395 304 419 402 414 c 0
 420 413 436 414 452 420 c 0
 476 427 490 438 497 452 c 0
 501 461 502 469 499 481 c 0
 493 501 483 520 469 535 c 0
 446 557 413 570 371 575 c 0
 357 577 308 578 285 577 c 0
 240 575 218 568 209 557 c 0
 205 552 204 549 203 539 c 0
 201 527 169 513 133 510 c 0
 114 508 95 512 90 517 c 0
 87 522 90 537 97 547 c 0
 114 573 160 594 226 607 c 0
 256 613 289 617 327 618 c 0
502 302 m 2
 502 387 l 1
 502 393 l 1
 488 389 l 2
 462 382 431 376 401 373 c 0
 389 372 359 371 323 372 c 0
 307 372 303 372 296 370 c 0
 284 367 270 359 259 351 c 0
 233 331 215 300 208 260 c 0
 201 228 201 198 208 166 c 0
 222 91 273 46 353 38 c 0
 379 35 395 37 409 45 c 0
 453 67 485 117 496 186 c 0
 501 213 501 219 502 302 c 2
EndSplineSet
EndChar

StartChar: aring
Encoding: 229 229 103
Width: 703
Flags: HW
LayerCount: 2
Fore
SplineSet
346 828 m 0
 358 829 383 828 393 827 c 0
 405 824 419 820 427 815 c 0
 441 807 453 792 459 775 c 0
 466 756 466 729 459 709 c 0
 455 696 449 687 440 678 c 0
 420 656 383 645 339 645 c 0
 317 645 307 646 292 651 c 0
 279 656 271 661 262 670 c 0
 248 684 240 705 240 731 c 0
 240 770 255 797 288 813 c 0
 301 820 324 826 346 828 c 0
359 803 m 0
 354 805 350 805 343 806 c 2
 333 806 l 1
 327 803 l 2
 317 796 309 783 305 768 c 0
 303 761 303 756 303 742 c 0
 303 722 304 713 311 700 c 0
 320 680 337 670 360 668 c 2
 371 668 l 1
 376 671 l 2
 386 678 394 691 398 707 c 0
 400 713 400 717 400 731 c 0
 400 751 399 760 392 773 c 0
 385 787 375 797 359 803 c 0
327 618 m 0
 345 619 419 618 434 617 c 0
 508 609 561 586 590 548 c 0
 598 537 606 519 610 507 c 0
 611 502 613 496 614 495 c 0
 615 493 615 459 615 260 c 0
 615 35 615 28 613 25 c 0
 609 19 596 11 580 6 c 0
 564 2 553 1 537 1 c 0
 518 0 510 2 505 7 c 0
 502 10 502 11 502 24 c 2
 502 37 l 1
 489 31 l 2
 428 0 344 -12 267 -1 c 0
 214 6 171 25 142 54 c 0
 130 66 122 77 115 91 c 0
 100 118 91 150 89 188 c 0
 87 255 111 314 156 350 c 0
 211 395 304 419 402 414 c 0
 420 413 436 414 452 420 c 0
 476 427 490 438 497 452 c 0
 501 461 502 469 499 481 c 0
 493 501 483 520 469 535 c 0
 446 557 413 570 371 575 c 0
 357 577 308 578 285 577 c 0
 240 575 218 568 209 557 c 0
 205 552 204 549 203 539 c 0
 201 527 169 513 133 510 c 0
 114 508 95 512 90 517 c 0
 87 522 90 537 97 547 c 0
 114 573 160 594 226 607 c 0
 256 613 289 617 327 618 c 0
502 302 m 2
 502 387 l 1
 502 393 l 1
 488 389 l 2
 462 382 431 376 401 373 c 0
 389 372 359 371 323 372 c 0
 307 372 303 372 296 370 c 0
 284 367 270 359 259 351 c 0
 233 331 215 300 208 260 c 0
 201 228 201 198 208 166 c 0
 222 91 273 46 353 38 c 0
 379 35 395 37 409 45 c 0
 453 67 485 117 496 186 c 0
 501 213 501 219 502 302 c 2
EndSplineSet
EndChar

StartChar: ae
Encoding: 230 230 104
Width: 784
Flags: HW
LayerCount: 2
Fore
SplineSet
220 613 m 0
 238 614 277 614 293 613 c 0
 345 609 383 595 410 570 c 2
 417 564 l 1
 423 569 l 2
 458 597 515 614 568 614 c 0
 615 614 652 600 683 569 c 0
 700 552 713 533 724 504 c 0
 742 458 753 398 753 329 c 0
 753 312 751 309 743 304 c 0
 734 298 720 293 701 289 c 0
 692 287 690 287 570 286 c 2
 450 286 l 1
 451 275 l 1
 454 197 463 150 486 106 c 0
 500 77 521 56 545 44 c 0
 560 37 571 36 591 38 c 0
 604 39 615 46 624 58 c 0
 633 69 637 81 639 99 c 0
 640 106 640 109 643 111 c 0
 653 122 680 130 709 133 c 0
 728 135 747 131 752 126 c 0
 755 121 751 102 745 88 c 0
 740 76 734 65 724 54 c 0
 694 24 636 3 568 -3 c 0
 549 -5 515 -5 502 -4 c 0
 461 0 428 15 402 43 c 2
 393 52 l 1
 385 45 l 2
 353 19 314 4 261 -3 c 0
 247 -5 194 -5 179 -3 c 0
 135 3 103 18 78 43 c 0
 51 70 36 105 29 154 c 0
 27 170 27 218 29 234 c 0
 33 272 44 303 61 329 c 0
 70 343 88 361 102 371 c 0
 146 401 207 416 274 415 c 2
 295 415 l 1
 303 419 l 2
 318 426 329 439 334 454 c 0
 336 461 336 469 333 480 c 0
 325 528 294 560 246 570 c 0
 228 573 179 572 167 568 c 0
 157 564 147 552 145 539 c 0
 144 534 144 531 140 528 c 0
 133 520 113 512 91 508 c 0
 77 506 52 506 44 508 c 0
 33 512 30 517 34 529 c 0
 42 559 74 582 128 598 c 0
 154 605 188 611 220 613 c 0
542 566 m 0
 530 571 528 571 519 564 c 0
 506 553 494 538 483 515 c 0
 468 484 458 443 454 398 c 0
 452 382 450 347 450 335 c 2
 450 328 l 1
 544 328 l 1
 639 328 l 1
 638 337 l 2
 636 380 634 400 629 425 c 0
 623 454 613 484 602 504 c 0
 587 533 566 555 542 566 c 0
340 382 m 0
 340 385 340 387 339 387 c 2
 333 385 l 2
 305 377 262 371 229 372 c 2
 212 373 l 1
 205 369 l 2
 178 356 156 322 147 280 c 0
 142 257 141 245 141 213 c 0
 141 181 142 169 147 146 c 0
 157 100 181 66 217 49 c 0
 230 42 251 37 264 37 c 0
 269 37 271 38 276 41 c 0
 285 47 299 61 305 71 c 0
 324 100 333 132 336 183 c 0
 336 196 337 200 338 202 c 0
 340 204 340 205 339 217 c 0
 335 262 335 344 340 382 c 0
EndSplineSet
EndChar

StartChar: ccedilla
Encoding: 231 231 105
Width: 703
Flags: HW
LayerCount: 2
Fore
SplineSet
353 618 m 0
 360 619 428 618 442 617 c 0
 449 616 464 615 474 613 c 0
 541 604 588 583 606 552 c 0
 613 540 617 522 614 516 c 0
 609 508 591 499 566 494 c 0
 552 491 527 490 516 492 c 0
 506 495 503 498 502 507 c 0
 501 516 498 523 492 532 c 0
 469 562 416 578 336 578 c 0
 318 578 311 576 298 569 c 0
 246 542 210 475 201 386 c 0
 195 337 196 271 203 227 c 0
 212 172 230 127 259 93 c 0
 282 66 315 47 351 40 c 0
 367 36 419 37 443 41 c 0
 478 46 498 62 501 88 c 0
 503 98 504 100 509 104 c 0
 522 114 549 123 577 124 c 0
 597 124 607 123 612 117 c 0
 615 114 615 113 615 106 c 0
 612 78 590 53 552 35 c 0
 530 24 500 13 471 8 c 0
 463 6 457 5 456 4 c 0
 455 4 456 2 458 -2 c 0
 471 -28 465 -62 443 -82 c 0
 427 -97 400 -109 366 -115 c 0
 347 -118 316 -119 307 -116 c 0
 300 -114 295 -108 295 -105 c 0
 295 -98 313 -88 332 -82 c 0
 343 -79 345 -78 348 -68 c 0
 354 -48 350 -25 337 -12 c 0
 330 -6 326 -5 312 -5 c 0
 250 -1 199 18 161 54 c 0
 136 78 114 116 102 155 c 0
 94 179 88 210 85 239 c 0
 82 275 83 333 87 370 c 0
 96 451 127 518 174 556 c 0
 215 589 276 611 338 617 c 0
 344 618 351 618 353 618 c 0
EndSplineSet
EndChar

StartChar: odieresis
Encoding: 246 246 106
Width: 780
Flags: HW
LayerCount: 2
Fore
SplineSet
309 705 m 0
 320 706 344 704 351 703 c 0
 362 700 369 695 368 689 c 0
 366 684 357 678 346 672 c 0
 324 662 299 656 271 656 c 0
 247 656 237 659 232 666 c 0
 229 670 231 673 237 679 c 0
 248 690 277 701 309 705 c 0
492 705 m 0
 503 706 527 704 534 703 c 0
 545 700 551 695 550 689 c 0
 548 684 539 678 528 672 c 0
 506 662 482 656 454 656 c 0
 430 656 420 659 415 666 c 0
 412 670 413 673 419 679 c 0
 430 690 460 701 492 705 c 0
379 618 m 0
 396 619 429 619 446 618 c 0
 511 614 563 598 606 569 c 0
 682 519 722 426 719 303 c 0
 717 223 697 162 660 112 c 0
 645 92 619 67 595 52 c 0
 520 6 405 -14 304 -1 c 0
 252 6 211 20 174 45 c 0
 98 95 58 188 61 311 c 0
 63 391 83 453 120 503 c 0
 135 523 161 547 185 562 c 0
 235 593 304 613 379 618 c 0
403 575 m 0
 390 576 354 578 343 577 c 0
 310 573 284 562 258 540 c 0
 204 495 175 416 175 316 c 0
 175 253 186 199 208 157 c 0
 215 143 230 121 240 110 c 0
 273 72 320 48 378 39 c 0
 393 37 435 37 449 39 c 0
 460 41 479 47 488 52 c 0
 549 84 591 150 601 240 c 0
 610 311 604 383 582 436 c 0
 569 470 547 500 523 522 c 0
 491 550 450 568 403 575 c 0
EndSplineSet
EndChar

StartChar: oslash
Encoding: 248 248 107
Width: 780
Flags: HW
LayerCount: 2
Fore
SplineSet
379 618 m 0
 418 621 467 618 502 611 c 0
 521 607 547 599 561 594 c 0
 564 592 564 592 569 596 c 0
 592 611 649 619 668 610 c 0
 673 607 675 603 674 600 c 0
 674 599 664 586 653 573 c 2
 634 549 l 1
 642 541 l 2
 695 487 721 404 719 303 c 0
 717 223 697 162 660 112 c 0
 650 100 627 76 614 67 c 0
 575 37 526 16 466 5 c 0
 395 -9 321 -8 259 7 c 0
 250 10 226 17 219 20 c 0
 216 22 216 22 211 18 c 0
 188 3 132 -5 113 4 c 0
 108 7 105 11 106 14 c 0
 106 15 116 28 127 41 c 2
 146 66 l 1
 138 74 l 2
 85 128 59 210 61 311 c 0
 63 391 83 453 120 503 c 0
 135 523 161 547 185 562 c 0
 235 593 304 613 379 618 c 0
403 575 m 0
 390 576 354 578 343 577 c 0
 310 573 284 562 258 540 c 0
 204 495 175 416 175 316 c 0
 175 254 186 200 208 158 c 2
 212 148 l 1
 298 256 l 2
 345 315 413 401 449 446 c 0
 485 491 514 528 514 529 c 2
 514 529 509 534 503 538 c 0
 475 557 440 569 403 575 c 0
572 457 m 0
 570 462 568 466 568 466 c 2
 567 466 266 86 266 85 c 2
 266 85 272 81 278 77 c 0
 307 58 339 45 378 39 c 0
 393 37 435 37 449 39 c 0
 460 41 479 47 488 52 c 0
 536 77 573 123 590 184 c 0
 610 252 610 347 590 413 c 0
 586 427 578 445 572 457 c 0
EndSplineSet
EndChar

StartChar: udieresis
Encoding: 252 252 108
Width: 703
Flags: HW
LayerCount: 2
Fore
SplineSet
270 705 m 0
 304 709 331 701 329 689 c 0
 327 685 318 678 309 673 c 0
 270 654 206 650 195 666 c 0
 192 670 193 674 199 679 c 0
 210 690 240 702 270 705 c 0
453 705 m 0
 487 709 513 701 511 689 c 0
 509 685 501 678 492 673 c 0
 453 654 388 650 377 666 c 0
 374 670 375 674 381 679 c 0
 392 690 423 702 453 705 c 0
153 613 m 0
 157 613 165 614 173 614 c 0
 187 613 195 611 200 608 c 2
 203 605 l 1
 203 437 l 2
 204 262 204 263 208 229 c 0
 220 143 257 83 313 54 c 0
 341 40 366 35 398 38 c 0
 417 40 430 44 445 54 c 0
 476 76 496 113 501 160 c 0
 502 167 502 239 502 378 c 2
 502 587 l 1
 506 592 l 2
 511 597 526 604 538 607 c 0
 554 612 565 613 582 613 c 0
 600 614 607 612 612 607 c 2
 615 604 l 1
 615 316 l 2
 615 36 615 28 613 25 c 0
 609 19 596 11 580 6 c 0
 564 2 553 1 537 1 c 0
 518 0 510 2 505 7 c 0
 502 10 502 10 502 18 c 2
 502 28 l 1
 494 24 l 1
 428 -4 322 -13 260 3 c 0
 210 15 171 42 144 80 c 0
 112 124 94 182 90 257 c 0
 89 267 89 336 89 430 c 2
 89 587 l 1
 93 591 l 2
 102 601 125 609 153 613 c 0
EndSplineSet
EndChar

StartChar: grave
Encoding: 96 96 109
Width: 202
Flags: HW
LayerCount: 2
Fore
SplineSet
112 818 m 0
 146 821 178 812 200 792 c 0
 212 782 220 766 227 744 c 0
 234 720 239 698 240 665 c 0
 240 640 239 640 230 634 c 0
 214 623 188 616 161 616 c 0
 142 615 134 618 129 623 c 2
 126 626 l 1
 126 646 l 2
 125 681 121 703 114 725 c 0
 109 739 105 746 99 755 c 0
 91 767 78 775 63 778 c 0
 50 781 45 785 45 790 c 0
 45 801 80 815 112 818 c 0
EndSplineSet
EndChar

StartChar: quotesingle
Encoding: 39 39 110
Width: 161
Flags: HW
LayerCount: 2
Fore
SplineSet
88 818 m 0
 92 818 101 819 109 819 c 0
 123 818 131 816 135 812 c 2
 138 809 l 1
 138 726 l 2
 138 632 139 640 129 634 c 0
 113 623 86 616 59 616 c 0
 40 615 33 618 28 623 c 2
 25 626 l 1
 25 709 l 1
 25 792 l 1
 29 796 l 2
 38 806 60 814 88 818 c 0
EndSplineSet
EndChar

StartChar: degree
Encoding: 176 176 111
Width: 574
Flags: HW
LayerCount: 2
Fore
SplineSet
279 818 m 0
 282 818 293 819 303 819 c 0
 328 819 339 817 343 810 c 0
 344 807 344 807 343 803 c 0
 338 795 317 784 291 780 c 0
 286 779 271 778 258 777 c 0
 245 776 230 776 227 775 c 0
 191 769 165 739 159 698 c 0
 157 686 158 669 161 659 c 0
 173 609 217 579 285 574 c 0
 309 572 342 572 348 573 c 0
 355 575 377 586 384 592 c 0
 396 603 409 621 413 637 c 0
 415 646 417 658 417 664 c 0
 417 670 420 674 427 679 c 0
 455 697 518 702 528 688 c 0
 530 685 530 678 529 666 c 0
 523 632 504 602 472 582 c 0
 428 553 365 533 304 530 c 0
 287 530 227 533 209 535 c 0
 153 540 109 556 82 582 c 0
 58 605 44 636 44 668 c 0
 44 692 54 718 69 738 c 0
 103 783 180 813 279 818 c 0
EndSplineSet
EndChar

StartChar: oe
Encoding: 189 339 112
Width: 784
Flags: HW
LayerCount: 2
Fore
SplineSet
243 618 m 0
 254 619 286 618 297 616 c 0
 338 609 373 587 397 553 c 0
 399 551 400 551 411 561 c 0
 440 589 477 607 525 615 c 0
 591 626 645 615 683 579 c 0
 703 561 717 540 730 507 c 0
 747 461 758 399 758 329 c 0
 758 312 757 309 749 304 c 0
 740 298 726 293 707 289 c 0
 698 287 695 287 573 286 c 2
 450 286 l 1
 450 279 l 2
 451 276 451 266 452 259 c 0
 454 211 462 166 476 131 c 0
 494 84 521 54 555 41 c 0
 563 38 565 38 581 38 c 0
 593 38 599 38 603 39 c 0
 615 43 629 56 636 70 c 0
 641 79 643 86 644 98 c 0
 645 106 645 109 648 111 c 0
 665 129 727 140 751 130 c 0
 757 126 758 125 758 115 c 0
 756 88 741 61 717 44 c 0
 677 14 615 -3 539 -5 c 0
 498 -6 473 -2 446 11 c 0
 424 21 402 39 388 61 c 1
 386 63 l 1
 376 54 l 2
 365 43 357 38 344 29 c 0
 319 15 286 3 250 -3 c 0
 231 -5 195 -5 179 -2 c 0
 145 4 120 17 97 40 c 0
 83 54 75 66 66 84 c 0
 46 125 34 170 29 233 c 0
 27 255 27 342 29 365 c 0
 34 427 45 472 67 514 c 0
 90 559 125 589 178 606 c 0
 197 612 220 616 243 618 c 0
232 572 m 0
 221 576 222 577 213 570 c 0
 179 542 154 487 145 413 c 0
 141 382 141 365 141 315 c 0
 141 265 141 249 145 218 c 0
 152 165 167 117 189 86 c 0
 204 64 227 47 249 40 c 2
 254 38 l 1
 262 44 l 2
 296 70 322 127 331 202 c 0
 335 233 335 249 335 299 c 0
 335 349 335 365 331 396 c 0
 324 449 307 497 287 528 c 0
 273 547 251 565 232 572 c 0
555 565 m 0
 551 568 543 571 539 573 c 2
 530 577 l 1
 525 572 l 2
 523 570 517 565 513 561 c 0
 482 529 461 471 454 399 c 0
 452 383 450 348 450 335 c 2
 450 328 l 1
 547 328 l 1
 644 328 l 1
 644 335 l 2
 643 338 643 347 642 355 c 0
 639 433 619 501 586 540 c 0
 578 549 565 559 555 565 c 0
EndSplineSet
EndChar

StartChar: OE
Encoding: 188 338 113
Width: 942
Flags: HW
LayerCount: 2
Fore
SplineSet
295 823 m 0
 334 827 386 821 420 810 c 2
 431 806 l 1
 437 808 l 2
 445 811 454 814 466 816 c 0
 475 818 478 818 664 819 c 0
 798 819 852 819 857 818 c 0
 892 812 874 790 824 780 c 0
 815 778 814 778 672 777 c 2
 528 777 l 1
 528 604 l 1
 528 431 l 1
 670 431 l 2
 761 431 813 431 817 430 c 0
 825 429 833 425 835 422 c 0
 836 419 836 419 835 416 c 0
 830 407 809 397 781 391 c 0
 773 390 762 390 650 389 c 2
 528 389 l 1
 528 215 l 1
 528 42 l 1
 690 42 l 2
 826 42 854 42 859 41 c 0
 867 39 871 37 874 33 c 0
 880 24 858 10 824 3 c 2
 813 1 l 1
 623 1 l 2
 445 1 432 1 427 2 c 0
 424 3 420 5 418 7 c 0
 415 9 415 10 415 14 c 0
 415 17 415 19 414 19 c 2
 414 19 408 17 402 15 c 0
 356 0 293 -8 250 -4 c 0
 167 4 113 64 83 182 c 0
 73 222 67 259 63 316 c 0
 61 342 61 460 63 487 c 0
 68 570 79 625 101 680 c 0
 128 745 165 783 222 806 c 0
 241 814 272 821 295 823 c 0
303 779 m 0
 298 780 291 781 287 781 c 0
 281 782 279 782 275 778 c 0
 251 763 230 733 215 695 c 0
 193 644 182 586 177 504 c 0
 175 477 175 360 177 334 c 0
 180 277 187 240 196 202 c 0
 216 120 250 68 295 45 c 0
 308 38 316 37 329 37 c 0
 341 38 349 40 358 45 c 0
 385 60 405 90 412 130 c 2
 414 142 l 1
 415 393 l 2
 415 569 415 648 414 656 c 0
 409 707 384 747 343 767 c 0
 334 772 314 778 303 779 c 0
EndSplineSet
EndChar
